<svg width="651" height="192" viewBox="0 0 651 192" fill="none" xmlns="http://www.w3.org/2000/svg">
<g filter="url(#filter0_d_2_10)">
<path d="M20 112V96H4V80H36V96H84V0H116V96H100V112H20ZM132 112V32H148V16H164V0H212V16H228V32H244V112H212V80H164V112H132ZM164 64H212V32H196V16H180V32H164V64ZM260 112V0H292V16H308V32H324V16H340V0H372V112H340V48H324V80H308V48H292V112H260ZM404 112V96H436V16H404V0H500V16H468V96H500V112H404ZM532 112V0H564V96H628V112H532Z" fill="url(#paint0_linear_2_10)" shape-rendering="crispEdges"/>
<path d="M20 112H18V114H20V112ZM20 96H22V94H20V96ZM4 96H2V98H4V96ZM4 80V78H2V80H4ZM36 80H38V78H36V80ZM36 96H34V98H36V96ZM84 96V98H86V96H84ZM84 0V-2H82V0H84ZM116 0H118V-2H116V0ZM116 96V98H118V96H116ZM100 96V94H98V96H100ZM100 112V114H102V112H100ZM22 112V96H18V112H22ZM20 94H4V98H20V94ZM6 96V80H2V96H6ZM4 82H36V78H4V82ZM34 80V96H38V80H34ZM36 98H84V94H36V98ZM86 96V0H82V96H86ZM84 2H116V-2H84V2ZM114 0V96H118V0H114ZM116 94H100V98H116V94ZM98 96V112H102V96H98ZM100 110H20V114H100V110ZM132 112H130V114H132V112ZM132 32V30H130V32H132ZM148 32V34H150V32H148ZM148 16V14H146V16H148ZM164 16V18H166V16H164ZM164 0V-2H162V0H164ZM212 0H214V-2H212V0ZM212 16H210V18H212V16ZM228 16H230V14H228V16ZM228 32H226V34H228V32ZM244 32H246V30H244V32ZM244 112V114H246V112H244ZM212 112H210V114H212V112ZM212 80H214V78H212V80ZM164 80V78H162V80H164ZM164 112V114H166V112H164ZM164 64H162V66H164V64ZM212 64V66H214V64H212ZM212 32H214V30H212V32ZM196 32H194V34H196V32ZM196 16H198V14H196V16ZM180 16V14H178V16H180ZM180 32V34H182V32H180ZM164 32V30H162V32H164ZM134 112V32H130V112H134ZM132 34H148V30H132V34ZM150 32V16H146V32H150ZM148 18H164V14H148V18ZM166 16V0H162V16H166ZM164 2H212V-2H164V2ZM210 0V16H214V0H210ZM212 18H228V14H212V18ZM226 16V32H230V16H226ZM228 34H244V30H228V34ZM242 32V112H246V32H242ZM244 110H212V114H244V110ZM214 112V80H210V112H214ZM212 78H164V82H212V78ZM162 80V112H166V80H162ZM164 110H132V114H164V110ZM164 66H212V62H164V66ZM214 64V32H210V64H214ZM212 30H196V34H212V30ZM198 32V16H194V32H198ZM196 14H180V18H196V14ZM178 16V32H182V16H178ZM180 30H164V34H180V30ZM162 32V64H166V32H162ZM260 112H258V114H260V112ZM260 0V-2H258V0H260ZM292 0H294V-2H292V0ZM292 16H290V18H292V16ZM308 16H310V14H308V16ZM308 32H306V34H308V32ZM324 32V34H326V32H324ZM324 16V14H322V16H324ZM340 16V18H342V16H340ZM340 0V-2H338V0H340ZM372 0H374V-2H372V0ZM372 112V114H374V112H372ZM340 112H338V114H340V112ZM340 48H342V46H340V48ZM324 48V46H322V48H324ZM324 80V82H326V80H324ZM308 80H306V82H308V80ZM308 48H310V46H308V48ZM292 48V46H290V48H292ZM292 112V114H294V112H292ZM262 112V0H258V112H262ZM260 2H292V-2H260V2ZM290 0V16H294V0H290ZM292 18H308V14H292V18ZM306 16V32H310V16H306ZM308 34H324V30H308V34ZM326 32V16H322V32H326ZM324 18H340V14H324V18ZM342 16V0H338V16H342ZM340 2H372V-2H340V2ZM370 0V112H374V0H370ZM372 110H340V114H372V110ZM342 112V48H338V112H342ZM340 46H324V50H340V46ZM322 48V80H326V48H322ZM324 78H308V82H324V78ZM310 80V48H306V80H310ZM308 46H292V50H308V46ZM290 48V112H294V48H290ZM292 110H260V114H292V110ZM404 112H402V114H404V112ZM404 96V94H402V96H404ZM436 96V98H438V96H436ZM436 16H438V14H436V16ZM404 16H402V18H404V16ZM404 0V-2H402V0H404ZM500 0H502V-2H500V0ZM500 16V18H502V16H500ZM468 16V14H466V16H468ZM468 96H466V98H468V96ZM500 96H502V94H500V96ZM500 112V114H502V112H500ZM406 112V96H402V112H406ZM404 98H436V94H404V98ZM438 96V16H434V96H438ZM436 14H404V18H436V14ZM406 16V0H402V16H406ZM404 2H500V-2H404V2ZM498 0V16H502V0H498ZM500 14H468V18H500V14ZM466 16V96H470V16H466ZM468 98H500V94H468V98ZM498 96V112H502V96H498ZM500 110H404V114H500V110ZM532 112H530V114H532V112ZM532 0V-2H530V0H532ZM564 0H566V-2H564V0ZM564 96H562V98H564V96ZM628 96H630V94H628V96ZM628 112V114H630V112H628ZM534 112V0H530V112H534ZM532 2H564V-2H532V2ZM562 0V96H566V0H562ZM564 98H628V94H564V98ZM626 96V112H630V96H626ZM628 110H532V114H628V110Z" fill="white"/>
</g>
<g filter="url(#filter1_d_2_10)">
<path d="M101 184V176H93V168H85V160H77V152H85V144H93V136H101V128H117V136H109V144H101V152H93V160H101V168H109V176H117V184H101ZM141 184V176H133V168H149V176H173V160H141V152H133V136H141V128H181V136H189V144H173V136H149V152H181V160H189V176H181V184H141ZM205 184V176H221V136H205V128H253V136H237V176H253V184H205ZM261 184V128H277V136H285V144H293V152H301V128H317V184H301V168H293V160H285V152H277V184H261ZM325 184V128H341V136H349V144H357V152H365V128H381V184H365V168H357V160H349V152H341V184H325ZM397 184V176H389V136H397V128H437V136H445V176H437V184H397ZM405 176H429V136H405V176ZM573 128V136H565V128H573ZM557 136H565V144H557V136ZM549 144H557V152H549V144ZM541 152H549V160H541V152ZM533 160H541V168H533V160ZM525 168H533V176H525V168ZM517 176H525V184H517V176ZM589 184V176H597V168H605V160H613V152H605V144H597V136H589V128H605V136H613V144H621V152H629V160H621V168H613V176H605V184H589Z" fill="black"/>
<path d="M101 184H99V186H101V184ZM101 176H103V174H101V176ZM93 176H91V178H93V176ZM93 168H95V166H93V168ZM85 168H83V170H85V168ZM85 160H87V158H85V160ZM77 160H75V162H77V160ZM77 152V150H75V152H77ZM85 152V154H87V152H85ZM85 144V142H83V144H85ZM93 144V146H95V144H93ZM93 136V134H91V136H93ZM101 136V138H103V136H101ZM101 128V126H99V128H101ZM117 128H119V126H117V128ZM117 136V138H119V136H117ZM109 136V134H107V136H109ZM109 144V146H111V144H109ZM101 144V142H99V144H101ZM101 152V154H103V152H101ZM93 152V150H91V152H93ZM93 160H91V162H93V160ZM101 160H103V158H101V160ZM101 168H99V170H101V168ZM109 168H111V166H109V168ZM109 176H107V178H109V176ZM117 176H119V174H117V176ZM117 184V186H119V184H117ZM103 184V176H99V184H103ZM101 174H93V178H101V174ZM95 176V168H91V176H95ZM93 166H85V170H93V166ZM87 168V160H83V168H87ZM85 158H77V162H85V158ZM79 160V152H75V160H79ZM77 154H85V150H77V154ZM87 152V144H83V152H87ZM85 146H93V142H85V146ZM95 144V136H91V144H95ZM93 138H101V134H93V138ZM103 136V128H99V136H103ZM101 130H117V126H101V130ZM115 128V136H119V128H115ZM117 134H109V138H117V134ZM107 136V144H111V136H107ZM109 142H101V146H109V142ZM99 144V152H103V144H99ZM101 150H93V154H101V150ZM91 152V160H95V152H91ZM93 162H101V158H93V162ZM99 160V168H103V160H99ZM101 170H109V166H101V170ZM107 168V176H111V168H107ZM109 178H117V174H109V178ZM115 176V184H119V176H115ZM117 182H101V186H117V182ZM141 184H139V186H141V184ZM141 176H143V174H141V176ZM133 176H131V178H133V176ZM133 168V166H131V168H133ZM149 168H151V166H149V168ZM149 176H147V178H149V176ZM173 176V178H175V176H173ZM173 160H175V158H173V160ZM141 160H139V162H141V160ZM141 152H143V150H141V152ZM133 152H131V154H133V152ZM133 136V134H131V136H133ZM141 136V138H143V136H141ZM141 128V126H139V128H141ZM181 128H183V126H181V128ZM181 136H179V138H181V136ZM189 136H191V134H189V136ZM189 144V146H191V144H189ZM173 144H171V146H173V144ZM173 136H175V134H173V136ZM149 136V134H147V136H149ZM149 152H147V154H149V152ZM181 152H183V150H181V152ZM181 160H179V162H181V160ZM189 160H191V158H189V160ZM189 176V178H191V176H189ZM181 176V174H179V176H181ZM181 184V186H183V184H181ZM143 184V176H139V184H143ZM141 174H133V178H141V174ZM135 176V168H131V176H135ZM133 170H149V166H133V170ZM147 168V176H151V168H147ZM149 178H173V174H149V178ZM175 176V160H171V176H175ZM173 158H141V162H173V158ZM143 160V152H139V160H143ZM141 150H133V154H141V150ZM135 152V136H131V152H135ZM133 138H141V134H133V138ZM143 136V128H139V136H143ZM141 130H181V126H141V130ZM179 128V136H183V128H179ZM181 138H189V134H181V138ZM187 136V144H191V136H187ZM189 142H173V146H189V142ZM175 144V136H171V144H175ZM173 134H149V138H173V134ZM147 136V152H151V136H147ZM149 154H181V150H149V154ZM179 152V160H183V152H179ZM181 162H189V158H181V162ZM187 160V176H191V160H187ZM189 174H181V178H189V174ZM179 176V184H183V176H179ZM181 182H141V186H181V182ZM205 184H203V186H205V184ZM205 176V174H203V176H205ZM221 176V178H223V176H221ZM221 136H223V134H221V136ZM205 136H203V138H205V136ZM205 128V126H203V128H205ZM253 128H255V126H253V128ZM253 136V138H255V136H253ZM237 136V134H235V136H237ZM237 176H235V178H237V176ZM253 176H255V174H253V176ZM253 184V186H255V184H253ZM207 184V176H203V184H207ZM205 178H221V174H205V178ZM223 176V136H219V176H223ZM221 134H205V138H221V134ZM207 136V128H203V136H207ZM205 130H253V126H205V130ZM251 128V136H255V128H251ZM253 134H237V138H253V134ZM235 136V176H239V136H235ZM237 178H253V174H237V178ZM251 176V184H255V176H251ZM253 182H205V186H253V182ZM261 184H259V186H261V184ZM261 128V126H259V128H261ZM277 128H279V126H277V128ZM277 136H275V138H277V136ZM285 136H287V134H285V136ZM285 144H283V146H285V144ZM293 144H295V142H293V144ZM293 152H291V154H293V152ZM301 152V154H303V152H301ZM301 128V126H299V128H301ZM317 128H319V126H317V128ZM317 184V186H319V184H317ZM301 184H299V186H301V184ZM301 168H303V166H301V168ZM293 168H291V170H293V168ZM293 160H295V158H293V160ZM285 160H283V162H285V160ZM285 152H287V150H285V152ZM277 152V150H275V152H277ZM277 184V186H279V184H277ZM263 184V128H259V184H263ZM261 130H277V126H261V130ZM275 128V136H279V128H275ZM277 138H285V134H277V138ZM283 136V144H287V136H283ZM285 146H293V142H285V146ZM291 144V152H295V144H291ZM293 154H301V150H293V154ZM303 152V128H299V152H303ZM301 130H317V126H301V130ZM315 128V184H319V128H315ZM317 182H301V186H317V182ZM303 184V168H299V184H303ZM301 166H293V170H301V166ZM295 168V160H291V168H295ZM293 158H285V162H293V158ZM287 160V152H283V160H287ZM285 150H277V154H285V150ZM275 152V184H279V152H275ZM277 182H261V186H277V182ZM325 184H323V186H325V184ZM325 128V126H323V128H325ZM341 128H343V126H341V128ZM341 136H339V138H341V136ZM349 136H351V134H349V136ZM349 144H347V146H349V144ZM357 144H359V142H357V144ZM357 152H355V154H357V152ZM365 152V154H367V152H365ZM365 128V126H363V128H365ZM381 128H383V126H381V128ZM381 184V186H383V184H381ZM365 184H363V186H365V184ZM365 168H367V166H365V168ZM357 168H355V170H357V168ZM357 160H359V158H357V160ZM349 160H347V162H349V160ZM349 152H351V150H349V152ZM341 152V150H339V152H341ZM341 184V186H343V184H341ZM327 184V128H323V184H327ZM325 130H341V126H325V130ZM339 128V136H343V128H339ZM341 138H349V134H341V138ZM347 136V144H351V136H347ZM349 146H357V142H349V146ZM355 144V152H359V144H355ZM357 154H365V150H357V154ZM367 152V128H363V152H367ZM365 130H381V126H365V130ZM379 128V184H383V128H379ZM381 182H365V186H381V182ZM367 184V168H363V184H367ZM365 166H357V170H365V166ZM359 168V160H355V168H359ZM357 158H349V162H357V158ZM351 160V152H347V160H351ZM349 150H341V154H349V150ZM339 152V184H343V152H339ZM341 182H325V186H341V182ZM397 184H395V186H397V184ZM397 176H399V174H397V176ZM389 176H387V178H389V176ZM389 136V134H387V136H389ZM397 136V138H399V136H397ZM397 128V126H395V128H397ZM437 128H439V126H437V128ZM437 136H435V138H437V136ZM445 136H447V134H445V136ZM445 176V178H447V176H445ZM437 176V174H435V176H437ZM437 184V186H439V184H437ZM405 176H403V178H405V176ZM429 176V178H431V176H429ZM429 136H431V134H429V136ZM405 136V134H403V136H405ZM399 184V176H395V184H399ZM397 174H389V178H397V174ZM391 176V136H387V176H391ZM389 138H397V134H389V138ZM399 136V128H395V136H399ZM397 130H437V126H397V130ZM435 128V136H439V128H435ZM437 138H445V134H437V138ZM443 136V176H447V136H443ZM445 174H437V178H445V174ZM435 176V184H439V176H435ZM437 182H397V186H437V182ZM405 178H429V174H405V178ZM431 176V136H427V176H431ZM429 134H405V138H429V134ZM403 136V176H407V136H403ZM573 128H575V126H573V128ZM573 136V138H575V136H573ZM565 136H563V138H565V136ZM565 128V126H563V128H565ZM557 136V134H555V136H557ZM565 136H567V134H565V136ZM565 144V146H567V144H565ZM557 144H555V146H557V144ZM549 144V142H547V144H549ZM557 144H559V142H557V144ZM557 152V154H559V152H557ZM549 152H547V154H549V152ZM541 152V150H539V152H541ZM549 152H551V150H549V152ZM549 160V162H551V160H549ZM541 160H539V162H541V160ZM533 160V158H531V160H533ZM541 160H543V158H541V160ZM541 168V170H543V168H541ZM533 168H531V170H533V168ZM525 168V166H523V168H525ZM533 168H535V166H533V168ZM533 176V178H535V176H533ZM525 176H523V178H525V176ZM517 176V174H515V176H517ZM525 176H527V174H525V176ZM525 184V186H527V184H525ZM517 184H515V186H517V184ZM571 128V136H575V128H571ZM573 134H565V138H573V134ZM567 136V128H563V136H567ZM565 130H573V126H565V130ZM557 138H565V134H557V138ZM563 136V144H567V136H563ZM565 142H557V146H565V142ZM559 144V136H555V144H559ZM549 146H557V142H549V146ZM555 144V152H559V144H555ZM557 150H549V154H557V150ZM551 152V144H547V152H551ZM541 154H549V150H541V154ZM547 152V160H551V152H547ZM549 158H541V162H549V158ZM543 160V152H539V160H543ZM533 162H541V158H533V162ZM539 160V168H543V160H539ZM541 166H533V170H541V166ZM535 168V160H531V168H535ZM525 170H533V166H525V170ZM531 168V176H535V168H531ZM533 174H525V178H533V174ZM527 176V168H523V176H527ZM517 178H525V174H517V178ZM523 176V184H527V176H523ZM525 182H517V186H525V182ZM519 184V176H515V184H519ZM589 184H587V186H589V184ZM589 176V174H587V176H589ZM597 176V178H599V176H597ZM597 168V166H595V168H597ZM605 168V170H607V168H605ZM605 160V158H603V160H605ZM613 160V162H615V160H613ZM613 152H615V150H613V152ZM605 152H603V154H605V152ZM605 144H607V142H605V144ZM597 144H595V146H597V144ZM597 136H599V134H597V136ZM589 136H587V138H589V136ZM589 128V126H587V128H589ZM605 128H607V126H605V128ZM605 136H603V138H605V136ZM613 136H615V134H613V136ZM613 144H611V146H613V144ZM621 144H623V142H621V144ZM621 152H619V154H621V152ZM629 152H631V150H629V152ZM629 160V162H631V160H629ZM621 160V158H619V160H621ZM621 168V170H623V168H621ZM613 168V166H611V168H613ZM613 176V178H615V176H613ZM605 176V174H603V176H605ZM605 184V186H607V184H605ZM591 184V176H587V184H591ZM589 178H597V174H589V178ZM599 176V168H595V176H599ZM597 170H605V166H597V170ZM607 168V160H603V168H607ZM605 162H613V158H605V162ZM615 160V152H611V160H615ZM613 150H605V154H613V150ZM607 152V144H603V152H607ZM605 142H597V146H605V142ZM599 144V136H595V144H599ZM597 134H589V138H597V134ZM591 136V128H587V136H591ZM589 130H605V126H589V130ZM603 128V136H607V128H603ZM605 138H613V134H605V138ZM611 136V144H615V136H611ZM613 146H621V142H613V146ZM619 144V152H623V144H619ZM621 154H629V150H621V154ZM627 152V160H631V152H627ZM629 158H621V162H629V158ZM619 160V168H623V160H619ZM621 166H613V170H621V166ZM611 168V176H615V168H611ZM613 174H605V178H613V174ZM603 176V184H607V176H603ZM605 182H589V186H605V182Z" fill="#FFFAFA"/>
</g>
<defs>
<filter id="filter0_d_2_10" x="0" y="0" width="632" height="120" filterUnits="userSpaceOnUse" color-interpolation-filters="sRGB">
<feFlood flood-opacity="0" result="BackgroundImageFix"/>
<feColorMatrix in="SourceAlpha" type="matrix" values="0 0 0 0 0 0 0 0 0 0 0 0 0 0 0 0 0 0 127 0" result="hardAlpha"/>
<feOffset dy="4"/>
<feGaussianBlur stdDeviation="2"/>
<feComposite in2="hardAlpha" operator="out"/>
<feColorMatrix type="matrix" values="0 0 0 0 0 0 0 0 0 0 0 0 0 0 0 0 0 0 0.25 0"/>
<feBlend mode="normal" in2="BackgroundImageFix" result="effect1_dropShadow_2_10"/>
<feBlend mode="normal" in="SourceGraphic" in2="effect1_dropShadow_2_10" result="shape"/>
</filter>
<filter id="filter1_d_2_10" x="73" y="128" width="560" height="64" filterUnits="userSpaceOnUse" color-interpolation-filters="sRGB">
<feFlood flood-opacity="0" result="BackgroundImageFix"/>
<feColorMatrix in="SourceAlpha" type="matrix" values="0 0 0 0 0 0 0 0 0 0 0 0 0 0 0 0 0 0 127 0" result="hardAlpha"/>
<feOffset dy="4"/>
<feGaussianBlur stdDeviation="2"/>
<feComposite in2="hardAlpha" operator="out"/>
<feColorMatrix type="matrix" values="0 0 0 0 0 0 0 0 0 0 0 0 0 0 0 0 0 0 0.25 0"/>
<feBlend mode="normal" in2="BackgroundImageFix" result="effect1_dropShadow_2_10"/>
<feBlend mode="normal" in="SourceGraphic" in2="effect1_dropShadow_2_10" result="shape"/>
</filter>
<linearGradient id="paint0_linear_2_10" x1="327.838" y1="-19" x2="327.838" y2="109" gradientUnits="userSpaceOnUse">
<stop offset="0.318715" stop-color="#CB2424"/>
<stop offset="0.508791" stop-color="#DE1F13" stop-opacity="0.899964"/>
<stop offset="0.711539" stop-color="#D32E13" stop-opacity="0.793258"/>
<stop offset="1" stop-color="#E4590A" stop-opacity="0.71"/>
</linearGradient>
</defs>
</svg>
