<svg width="651" height="192" viewBox="0 0 651 192" fill="none" xmlns="http://www.w3.org/2000/svg">
<g filter="url(#filter0_d_2_8)">
<path d="M20 112V96H4V80H36V96H84V0H116V96H100V112H20ZM132 112V32H148V16H164V0H212V16H228V32H244V112H212V80H164V112H132ZM164 64H212V32H196V16H180V32H164V64ZM260 112V0H292V16H308V32H324V16H340V0H372V112H340V48H324V80H308V48H292V112H260ZM404 112V96H436V16H404V0H500V16H468V96H500V112H404ZM532 112V0H564V96H628V112H532Z" fill="url(#paint0_linear_2_8)" shape-rendering="crispEdges"/>
<path d="M20 112H18V114H20V112ZM20 96H22V94H20V96ZM4 96H2V98H4V96ZM4 80V78H2V80H4ZM36 80H38V78H36V80ZM36 96H34V98H36V96ZM84 96V98H86V96H84ZM84 0V-2H82V0H84ZM116 0H118V-2H116V0ZM116 96V98H118V96H116ZM100 96V94H98V96H100ZM100 112V114H102V112H100ZM22 112V96H18V112H22ZM20 94H4V98H20V94ZM6 96V80H2V96H6ZM4 82H36V78H4V82ZM34 80V96H38V80H34ZM36 98H84V94H36V98ZM86 96V0H82V96H86ZM84 2H116V-2H84V2ZM114 0V96H118V0H114ZM116 94H100V98H116V94ZM98 96V112H102V96H98ZM100 110H20V114H100V110ZM132 112H130V114H132V112ZM132 32V30H130V32H132ZM148 32V34H150V32H148ZM148 16V14H146V16H148ZM164 16V18H166V16H164ZM164 0V-2H162V0H164ZM212 0H214V-2H212V0ZM212 16H210V18H212V16ZM228 16H230V14H228V16ZM228 32H226V34H228V32ZM244 32H246V30H244V32ZM244 112V114H246V112H244ZM212 112H210V114H212V112ZM212 80H214V78H212V80ZM164 80V78H162V80H164ZM164 112V114H166V112H164ZM164 64H162V66H164V64ZM212 64V66H214V64H212ZM212 32H214V30H212V32ZM196 32H194V34H196V32ZM196 16H198V14H196V16ZM180 16V14H178V16H180ZM180 32V34H182V32H180ZM164 32V30H162V32H164ZM134 112V32H130V112H134ZM132 34H148V30H132V34ZM150 32V16H146V32H150ZM148 18H164V14H148V18ZM166 16V0H162V16H166ZM164 2H212V-2H164V2ZM210 0V16H214V0H210ZM212 18H228V14H212V18ZM226 16V32H230V16H226ZM228 34H244V30H228V34ZM242 32V112H246V32H242ZM244 110H212V114H244V110ZM214 112V80H210V112H214ZM212 78H164V82H212V78ZM162 80V112H166V80H162ZM164 110H132V114H164V110ZM164 66H212V62H164V66ZM214 64V32H210V64H214ZM212 30H196V34H212V30ZM198 32V16H194V32H198ZM196 14H180V18H196V14ZM178 16V32H182V16H178ZM180 30H164V34H180V30ZM162 32V64H166V32H162ZM260 112H258V114H260V112ZM260 0V-2H258V0H260ZM292 0H294V-2H292V0ZM292 16H290V18H292V16ZM308 16H310V14H308V16ZM308 32H306V34H308V32ZM324 32V34H326V32H324ZM324 16V14H322V16H324ZM340 16V18H342V16H340ZM340 0V-2H338V0H340ZM372 0H374V-2H372V0ZM372 112V114H374V112H372ZM340 112H338V114H340V112ZM340 48H342V46H340V48ZM324 48V46H322V48H324ZM324 80V82H326V80H324ZM308 80H306V82H308V80ZM308 48H310V46H308V48ZM292 48V46H290V48H292ZM292 112V114H294V112H292ZM262 112V0H258V112H262ZM260 2H292V-2H260V2ZM290 0V16H294V0H290ZM292 18H308V14H292V18ZM306 16V32H310V16H306ZM308 34H324V30H308V34ZM326 32V16H322V32H326ZM324 18H340V14H324V18ZM342 16V0H338V16H342ZM340 2H372V-2H340V2ZM370 0V112H374V0H370ZM372 110H340V114H372V110ZM342 112V48H338V112H342ZM340 46H324V50H340V46ZM322 48V80H326V48H322ZM324 78H308V82H324V78ZM310 80V48H306V80H310ZM308 46H292V50H308V46ZM290 48V112H294V48H290ZM292 110H260V114H292V110ZM404 112H402V114H404V112ZM404 96V94H402V96H404ZM436 96V98H438V96H436ZM436 16H438V14H436V16ZM404 16H402V18H404V16ZM404 0V-2H402V0H404ZM500 0H502V-2H500V0ZM500 16V18H502V16H500ZM468 16V14H466V16H468ZM468 96H466V98H468V96ZM500 96H502V94H500V96ZM500 112V114H502V112H500ZM406 112V96H402V112H406ZM404 98H436V94H404V98ZM438 96V16H434V96H438ZM436 14H404V18H436V14ZM406 16V0H402V16H406ZM404 2H500V-2H404V2ZM498 0V16H502V0H498ZM500 14H468V18H500V14ZM466 16V96H470V16H466ZM468 98H500V94H468V98ZM498 96V112H502V96H498ZM500 110H404V114H500V110ZM532 112H530V114H532V112ZM532 0V-2H530V0H532ZM564 0H566V-2H564V0ZM564 96H562V98H564V96ZM628 96H630V94H628V96ZM628 112V114H630V112H628ZM534 112V0H530V112H534ZM532 2H564V-2H532V2ZM562 0V96H566V0H562ZM564 98H628V94H564V98ZM626 96V112H630V96H626ZM628 110H532V114H628V110Z" fill="white"/>
</g>
<g filter="url(#filter1_d_2_8)">
<path d="M324 184V176H316V168H332V176H356V160H324V152H316V136H324V128H364V136H372V144H356V136H332V152H364V160H372V176H364V184H324ZM388 184V176H404V136H388V128H436V136H420V176H436V184H388ZM444 184V128H460V136H468V144H476V152H484V128H500V184H484V168H476V160H468V152H460V184H444ZM508 184V128H524V136H532V144H540V152H548V128H564V184H548V168H540V160H532V152H524V184H508ZM580 184V176H572V136H580V128H620V136H628V176H620V184H580ZM588 176H612V136H588V176Z" fill="black"/>
<path d="M324 184H322V186H324V184ZM324 176H326V174H324V176ZM316 176H314V178H316V176ZM316 168V166H314V168H316ZM332 168H334V166H332V168ZM332 176H330V178H332V176ZM356 176V178H358V176H356ZM356 160H358V158H356V160ZM324 160H322V162H324V160ZM324 152H326V150H324V152ZM316 152H314V154H316V152ZM316 136V134H314V136H316ZM324 136V138H326V136H324ZM324 128V126H322V128H324ZM364 128H366V126H364V128ZM364 136H362V138H364V136ZM372 136H374V134H372V136ZM372 144V146H374V144H372ZM356 144H354V146H356V144ZM356 136H358V134H356V136ZM332 136V134H330V136H332ZM332 152H330V154H332V152ZM364 152H366V150H364V152ZM364 160H362V162H364V160ZM372 160H374V158H372V160ZM372 176V178H374V176H372ZM364 176V174H362V176H364ZM364 184V186H366V184H364ZM326 184V176H322V184H326ZM324 174H316V178H324V174ZM318 176V168H314V176H318ZM316 170H332V166H316V170ZM330 168V176H334V168H330ZM332 178H356V174H332V178ZM358 176V160H354V176H358ZM356 158H324V162H356V158ZM326 160V152H322V160H326ZM324 150H316V154H324V150ZM318 152V136H314V152H318ZM316 138H324V134H316V138ZM326 136V128H322V136H326ZM324 130H364V126H324V130ZM362 128V136H366V128H362ZM364 138H372V134H364V138ZM370 136V144H374V136H370ZM372 142H356V146H372V142ZM358 144V136H354V144H358ZM356 134H332V138H356V134ZM330 136V152H334V136H330ZM332 154H364V150H332V154ZM362 152V160H366V152H362ZM364 162H372V158H364V162ZM370 160V176H374V160H370ZM372 174H364V178H372V174ZM362 176V184H366V176H362ZM364 182H324V186H364V182ZM388 184H386V186H388V184ZM388 176V174H386V176H388ZM404 176V178H406V176H404ZM404 136H406V134H404V136ZM388 136H386V138H388V136ZM388 128V126H386V128H388ZM436 128H438V126H436V128ZM436 136V138H438V136H436ZM420 136V134H418V136H420ZM420 176H418V178H420V176ZM436 176H438V174H436V176ZM436 184V186H438V184H436ZM390 184V176H386V184H390ZM388 178H404V174H388V178ZM406 176V136H402V176H406ZM404 134H388V138H404V134ZM390 136V128H386V136H390ZM388 130H436V126H388V130ZM434 128V136H438V128H434ZM436 134H420V138H436V134ZM418 136V176H422V136H418ZM420 178H436V174H420V178ZM434 176V184H438V176H434ZM436 182H388V186H436V182ZM444 184H442V186H444V184ZM444 128V126H442V128H444ZM460 128H462V126H460V128ZM460 136H458V138H460V136ZM468 136H470V134H468V136ZM468 144H466V146H468V144ZM476 144H478V142H476V144ZM476 152H474V154H476V152ZM484 152V154H486V152H484ZM484 128V126H482V128H484ZM500 128H502V126H500V128ZM500 184V186H502V184H500ZM484 184H482V186H484V184ZM484 168H486V166H484V168ZM476 168H474V170H476V168ZM476 160H478V158H476V160ZM468 160H466V162H468V160ZM468 152H470V150H468V152ZM460 152V150H458V152H460ZM460 184V186H462V184H460ZM446 184V128H442V184H446ZM444 130H460V126H444V130ZM458 128V136H462V128H458ZM460 138H468V134H460V138ZM466 136V144H470V136H466ZM468 146H476V142H468V146ZM474 144V152H478V144H474ZM476 154H484V150H476V154ZM486 152V128H482V152H486ZM484 130H500V126H484V130ZM498 128V184H502V128H498ZM500 182H484V186H500V182ZM486 184V168H482V184H486ZM484 166H476V170H484V166ZM478 168V160H474V168H478ZM476 158H468V162H476V158ZM470 160V152H466V160H470ZM468 150H460V154H468V150ZM458 152V184H462V152H458ZM460 182H444V186H460V182ZM508 184H506V186H508V184ZM508 128V126H506V128H508ZM524 128H526V126H524V128ZM524 136H522V138H524V136ZM532 136H534V134H532V136ZM532 144H530V146H532V144ZM540 144H542V142H540V144ZM540 152H538V154H540V152ZM548 152V154H550V152H548ZM548 128V126H546V128H548ZM564 128H566V126H564V128ZM564 184V186H566V184H564ZM548 184H546V186H548V184ZM548 168H550V166H548V168ZM540 168H538V170H540V168ZM540 160H542V158H540V160ZM532 160H530V162H532V160ZM532 152H534V150H532V152ZM524 152V150H522V152H524ZM524 184V186H526V184H524ZM510 184V128H506V184H510ZM508 130H524V126H508V130ZM522 128V136H526V128H522ZM524 138H532V134H524V138ZM530 136V144H534V136H530ZM532 146H540V142H532V146ZM538 144V152H542V144H538ZM540 154H548V150H540V154ZM550 152V128H546V152H550ZM548 130H564V126H548V130ZM562 128V184H566V128H562ZM564 182H548V186H564V182ZM550 184V168H546V184H550ZM548 166H540V170H548V166ZM542 168V160H538V168H542ZM540 158H532V162H540V158ZM534 160V152H530V160H534ZM532 150H524V154H532V150ZM522 152V184H526V152H522ZM524 182H508V186H524V182ZM580 184H578V186H580V184ZM580 176H582V174H580V176ZM572 176H570V178H572V176ZM572 136V134H570V136H572ZM580 136V138H582V136H580ZM580 128V126H578V128H580ZM620 128H622V126H620V128ZM620 136H618V138H620V136ZM628 136H630V134H628V136ZM628 176V178H630V176H628ZM620 176V174H618V176H620ZM620 184V186H622V184H620ZM588 176H586V178H588V176ZM612 176V178H614V176H612ZM612 136H614V134H612V136ZM588 136V134H586V136H588ZM582 184V176H578V184H582ZM580 174H572V178H580V174ZM574 176V136H570V176H574ZM572 138H580V134H572V138ZM582 136V128H578V136H582ZM580 130H620V126H580V130ZM618 128V136H622V128H618ZM620 138H628V134H620V138ZM626 136V176H630V136H626ZM628 174H620V178H628V174ZM618 176V184H622V176H618ZM620 182H580V186H620V182ZM588 178H612V174H588V178ZM614 176V136H610V176H614ZM612 134H588V138H612V134ZM586 136V176H590V136H586Z" fill="#FFFAFA"/>
</g>
<defs>
<filter id="filter0_d_2_8" x="0" y="0" width="632" height="120" filterUnits="userSpaceOnUse" color-interpolation-filters="sRGB">
<feFlood flood-opacity="0" result="BackgroundImageFix"/>
<feColorMatrix in="SourceAlpha" type="matrix" values="0 0 0 0 0 0 0 0 0 0 0 0 0 0 0 0 0 0 127 0" result="hardAlpha"/>
<feOffset dy="4"/>
<feGaussianBlur stdDeviation="2"/>
<feComposite in2="hardAlpha" operator="out"/>
<feColorMatrix type="matrix" values="0 0 0 0 0 0 0 0 0 0 0 0 0 0 0 0 0 0 0.25 0"/>
<feBlend mode="normal" in2="BackgroundImageFix" result="effect1_dropShadow_2_8"/>
<feBlend mode="normal" in="SourceGraphic" in2="effect1_dropShadow_2_8" result="shape"/>
</filter>
<filter id="filter1_d_2_8" x="312" y="128" width="320" height="64" filterUnits="userSpaceOnUse" color-interpolation-filters="sRGB">
<feFlood flood-opacity="0" result="BackgroundImageFix"/>
<feColorMatrix in="SourceAlpha" type="matrix" values="0 0 0 0 0 0 0 0 0 0 0 0 0 0 0 0 0 0 127 0" result="hardAlpha"/>
<feOffset dy="4"/>
<feGaussianBlur stdDeviation="2"/>
<feComposite in2="hardAlpha" operator="out"/>
<feColorMatrix type="matrix" values="0 0 0 0 0 0 0 0 0 0 0 0 0 0 0 0 0 0 0.25 0"/>
<feBlend mode="normal" in2="BackgroundImageFix" result="effect1_dropShadow_2_8"/>
<feBlend mode="normal" in="SourceGraphic" in2="effect1_dropShadow_2_8" result="shape"/>
</filter>
<linearGradient id="paint0_linear_2_8" x1="327.838" y1="-19" x2="327.838" y2="109" gradientUnits="userSpaceOnUse">
<stop offset="0.318715" stop-color="#CB2424"/>
<stop offset="0.508791" stop-color="#DE1F13" stop-opacity="0.899964"/>
<stop offset="0.711539" stop-color="#D32E13" stop-opacity="0.793258"/>
<stop offset="1" stop-color="#E4590A" stop-opacity="0.71"/>
</linearGradient>
</defs>
</svg>
