<?xml version="1.0" encoding="UTF-8" standalone="no"?>
<!-- Created with Inkscape (http://www.inkscape.org/) -->

<svg
   width="392.15884"
   height="76.988235"
   viewBox="0 0 103.75869 20.369808"
   version="1.1"
   id="svg1382"
   inkscape:export-filename="bitmap.svg"
   inkscape:export-xdpi="96"
   inkscape:export-ydpi="96"
   xmlns:inkscape="http://www.inkscape.org/namespaces/inkscape"
   xmlns:sodipodi="http://sodipodi.sourceforge.net/DTD/sodipodi-0.dtd"
   xmlns="http://www.w3.org/2000/svg"
   xmlns:svg="http://www.w3.org/2000/svg">
  <sodipodi:namedview
     id="namedview1384"
     pagecolor="#ffffff"
     bordercolor="#000000"
     borderopacity="0.25"
     inkscape:showpageshadow="2"
     inkscape:pageopacity="0.0"
     inkscape:pagecheckerboard="0"
     inkscape:deskcolor="#d1d1d1"
     inkscape:document-units="mm"
     showgrid="false" />
  <defs
     id="defs1379">
    <clipPath
       id="ab0a7976ac">
      <path
         d="m 30.3125,474.71094 h 371.25 v 175.5 h -371.25 z m 0,0"
         clip-rule="nonzero"
         id="path165" />
    </clipPath>
    <clipPath
       id="0a27f62432">
      <path
         d="M 12.691406,454.39453 H 1112.9414 v 216 H 12.691406 Z m 0,0"
         clip-rule="nonzero"
         id="path162" />
    </clipPath>
  </defs>
  <g
     inkscape:label="Layer 1"
     inkscape:groupmode="layer"
     id="layer1"
     transform="translate(-1.0373214,-1.5890561)">
    <g
       id="g1836"
       transform="translate(-0.30553999,0.17107202)">
      <g
         clip-path="url(#0a27f62432)"
         id="g172"
         transform="matrix(0.09430465,0,0,0.09430465,0.14600276,-41.433533)">
        <path
           stroke-linecap="butt"
           transform="matrix(0.75008,0,0,0.749268,12.691402,454.39429)"
           fill="none"
           stroke-linejoin="miter"
           d="M 6.00319e-6,3.18148e-4 H 1466.8439 V 288.2816 H 6.00319e-6 V 3.18148e-4"
           stroke="#000000"
           stroke-width="6"
           stroke-opacity="1"
           stroke-miterlimit="4"
           id="path170" />
      </g>
      <g
         clip-path="url(#ab0a7976ac)"
         id="g176"
         transform="matrix(0.09430465,0,0,0.09430465,0.14600276,-41.433533)">
        <path
           fill="#000000"
           d="M 30.320312,474.71094 H 401.55859 v 175.5 H 30.320312 v -175.5"
           fill-opacity="1"
           fill-rule="nonzero"
           id="path174" />
      </g>
      <g
         fill="#ffffff"
         fill-opacity="1"
         id="g184"
         transform="matrix(0.09430465,0,0,0.09430465,0.14600276,-41.433533)">
        <g
           transform="translate(64.206977,592.10472)"
           id="g182">
          <g
             id="g180">
            <path
               d="m 28.226562,1.09375 c 12.894532,0 21.234376,-6.316406 21.234376,-16.597656 0,-8.679688 -5.8125,-13.902344 -20.894532,-17.609375 C 17.105469,-35.894531 13.3125,-38.929688 13.3125,-43.816406 13.3125,-49.460938 18.371094,-53 26.796875,-53 c 8.675781,0 14.070313,4.378906 14.238281,11.457031 h 7.332032 C 48.28125,-53 40.023438,-60.078125 26.796875,-60.078125 c -12.894531,0 -21.066406,6.320313 -21.066406,16.261719 0,9.101562 6.488281,14.15625 20.980469,17.609375 10.617187,2.527343 15.082031,5.476562 15.082031,10.957031 0,5.8125 -5.222657,9.265625 -13.566407,9.265625 -9.183593,0 -15.585937,-4.546875 -15.753906,-12.132813 H 5.054688 C 5.140625,-6.574219 14.15625,1.09375 28.226562,1.09375 Z m 0,0"
               id="path178" />
          </g>
        </g>
      </g>
      <g
         fill="#ffffff"
         fill-opacity="1"
         id="g192"
         transform="matrix(0.09430465,0,0,0.09430465,0.14600276,-41.433533)">
        <g
           transform="translate(125.11093,592.10472)"
           id="g190">
          <g
             id="g188">
            <path
               d="m 8.59375,0 h 7.417969 V -58.984375 H 8.59375 Z m 0,0"
               id="path186" />
          </g>
        </g>
      </g>
      <g
         fill="#ffffff"
         fill-opacity="1"
         id="g200"
         transform="matrix(0.09430465,0,0,0.09430465,0.14600276,-41.433533)">
        <g
           transform="translate(156.11172,592.10472)"
           id="g198">
          <g
             id="g196">
            <path
               d="m 8.59375,0 h 7.332031 V -46.175781 L 48.535156,0 h 6.910156 v -58.984375 h -7.246093 v 46.175781 L 15.589844,-58.984375 H 8.59375 Z m 0,0"
               id="path194" />
          </g>
        </g>
      </g>
      <g
         fill="#ffffff"
         fill-opacity="1"
         id="g208"
         transform="matrix(0.09430465,0,0,0.09430465,0.14600276,-41.433533)">
        <g
           transform="translate(226.53413,592.10472)"
           id="g206">
          <g
             id="g204">
            <path
               d="m 8.59375,0 h 7.332031 V -46.175781 L 48.535156,0 h 6.910156 v -58.984375 h -7.246093 v 46.175781 L 15.589844,-58.984375 H 8.59375 Z m 0,0"
               id="path202" />
          </g>
        </g>
      </g>
      <g
         fill="#ffffff"
         fill-opacity="1"
         id="g216"
         transform="matrix(0.09430465,0,0,0.09430465,0.14600276,-41.433533)">
        <g
           transform="translate(296.95654,592.10472)"
           id="g214">
          <g
             id="g212">
            <path
               d="m 35.390625,1.09375 c 17.949219,0 30.585937,-12.636719 30.585937,-30.585938 0,-17.949218 -12.636718,-30.585937 -30.585937,-30.585937 -17.949219,0 -30.503906,12.636719 -30.503906,30.585937 0,17.949219 12.554687,30.585938 30.503906,30.585938 z M 12.472656,-29.492188 c 0,-13.734374 9.351563,-23.171874 22.917969,-23.171874 13.566406,0 22.917969,9.4375 22.917969,23.171874 0,13.734376 -9.351563,23.171876 -22.917969,23.171876 -13.566406,0 -22.917969,-9.4375 -22.917969,-23.171876 z m 0,0"
               id="path210" />
          </g>
        </g>
      </g>
      <g
         fill="#000000"
         fill-opacity="1"
         id="g224"
         transform="matrix(0.09430465,0,0,0.09430465,0.14600276,-41.433533)">
        <g
           transform="translate(405.23314,594.80848)"
           id="g222">
          <g
             id="g220">
            <path
               d="M 20.308594,0 H 37.242188 V -43.226562 H 55.191406 V -58.980469 H 2.359375 v 15.753907 h 17.949219 z m 0,0"
               id="path218" />
          </g>
        </g>
      </g>
      <g
         fill="#000000"
         fill-opacity="1"
         id="g232"
         transform="matrix(0.09430465,0,0,0.09430465,0.14600276,-41.433533)">
        <g
           transform="translate(462.77934,594.80848)"
           id="g230">
          <g
             id="g228">
            <path
               d="M 6.234375,0 H 47.605469 V -13.902344 H 23.085938 v -9.101562 H 44.40625 V -36.652344 H 23.085938 v -8.59375 h 23.59375 V -58.980469 H 6.234375 Z m 0,0"
               id="path226" />
          </g>
        </g>
      </g>
      <g
         fill="#000000"
         fill-opacity="1"
         id="g240"
         transform="matrix(0.09430465,0,0,0.09430465,0.14600276,-41.433533)">
        <g
           transform="translate(514.1749,594.80848)"
           id="g238">
          <g
             id="g236">
            <path
               d="m 33.789062,1.265625 c 16.261719,0 28.5625,-9.859375 31.089844,-24.859375 H 47.605469 c -2.105469,5.5625 -7.078125,9.101562 -13.480469,9.101562 -8.257812,0 -13.988281,-6.152343 -13.988281,-15 0,-8.929687 5.816406,-14.996093 14.15625,-14.996093 6.152343,0 11.292969,3.453125 13.0625,8.761719 h 17.1875 C 61.511719,-50.640625 49.375,-60.246094 33.621094,-60.246094 c -18.203125,0 -30.757813,12.554688 -30.757813,30.753906 0,18.203126 12.554688,30.757813 30.925781,30.757813 z m 0,0"
               id="path234" />
          </g>
        </g>
      </g>
      <g
         fill="#000000"
         fill-opacity="1"
         id="g248"
         transform="matrix(0.09430465,0,0,0.09430465,0.14600276,-41.433533)">
        <g
           transform="translate(581.74744,594.80848)"
           id="g246">
          <g
             id="g244">
            <path
               d="M 41.457031,0 H 58.476562 V -58.980469 H 41.457031 v 21.148438 H 23.253906 V -58.980469 H 6.234375 V 0 h 17.019531 v -22.160156 h 18.203125 z m 0,0"
               id="path242" />
          </g>
        </g>
      </g>
      <g
         fill="#000000"
         fill-opacity="1"
         id="g256"
         transform="matrix(0.09430465,0,0,0.09430465,0.14600276,-41.433533)">
        <g
           transform="translate(646.45531,594.80848)"
           id="g254">
          <g
             id="g252">
            <path
               d="M 6.234375,0 H 23.085938 V -30.082031 L 45.5,0 H 59.320312 V -58.980469 H 42.550781 v 29.910157 L 20.136719,-58.980469 H 6.234375 Z m 0,0"
               id="path250" />
          </g>
        </g>
      </g>
      <g
         fill="#000000"
         fill-opacity="1"
         id="g264"
         transform="matrix(0.09430465,0,0,0.09430465,0.14600276,-41.433533)">
        <g
           transform="translate(712.08999,594.80848)"
           id="g262">
          <g
             id="g260">
            <path
               d="m 34.96875,1.265625 c 18.789062,0 32.101562,-12.726563 32.101562,-30.757813 0,-18.03125 -13.3125,-30.753906 -32.101562,-30.753906 -18.789062,0 -32.105469,12.722656 -32.105469,30.753906 0,18.03125 13.316407,30.757813 32.105469,30.757813 z M 20.136719,-29.492188 c 0,-8.847656 6.152343,-14.996093 14.832031,-14.996093 8.761719,0 14.828125,6.148437 14.828125,14.996093 0,8.847657 -6.066406,15 -14.828125,15 -8.679688,0 -14.832031,-6.152343 -14.832031,-15 z m 0,0"
               id="path258" />
          </g>
        </g>
      </g>
      <g
         fill="#000000"
         fill-opacity="1"
         id="g272"
         transform="matrix(0.09430465,0,0,0.09430465,0.14600276,-41.433533)">
        <g
           transform="translate(782.10594,594.80848)"
           id="g270">
          <g
             id="g268">
            <path
               d="M 6.234375,0 H 47.355469 V -15.757812 H 23.253906 V -58.980469 H 6.234375 Z m 0,0"
               id="path266" />
          </g>
        </g>
      </g>
      <g
         fill="#000000"
         fill-opacity="1"
         id="g280"
         transform="matrix(0.09430465,0,0,0.09430465,0.14600276,-41.433533)">
        <g
           transform="translate(831.56365,594.80848)"
           id="g278">
          <g
             id="g276">
            <path
               d="m 34.96875,1.265625 c 18.789062,0 32.101562,-12.726563 32.101562,-30.757813 0,-18.03125 -13.3125,-30.753906 -32.101562,-30.753906 -18.789062,0 -32.105469,12.722656 -32.105469,30.753906 0,18.03125 13.316407,30.757813 32.105469,30.757813 z M 20.136719,-29.492188 c 0,-8.847656 6.152343,-14.996093 14.832031,-14.996093 8.761719,0 14.828125,6.148437 14.828125,14.996093 0,8.847657 -6.066406,15 -14.828125,15 -8.679688,0 -14.832031,-6.152343 -14.832031,-15 z m 0,0"
               id="path274" />
          </g>
        </g>
      </g>
      <g
         fill="#000000"
         fill-opacity="1"
         id="g288"
         transform="matrix(0.09430465,0,0,0.09430465,0.14600276,-41.433533)">
        <g
           transform="translate(901.5796,594.80848)"
           id="g286">
          <g
             id="g284">
            <path
               d="m 34.378906,1.265625 c 20.304688,0 33.027344,-14.746094 31.175782,-35.476563 h -34.125 v 11.964844 h 16.261718 c -1.683594,4.972656 -6.402344,8.34375 -13.144531,8.34375 -9.4375,0 -14.914063,-6.65625 -14.914063,-15.589844 0,-9.265624 5.980469,-15.585937 14.746094,-15.585937 5.222656,0 9.6875,2.273437 11.964844,5.980469 H 64.457031 C 61.003906,-51.988281 49.039062,-60.246094 34.125,-60.246094 c -18.535156,0 -31.261719,12.640625 -31.261719,30.753906 0,18.203126 12.808594,30.757813 31.515625,30.757813 z m 0,0"
               id="path282" />
          </g>
        </g>
      </g>
      <g
         fill="#000000"
         fill-opacity="1"
         id="g296"
         transform="matrix(0.09430465,0,0,0.09430465,0.14600276,-41.433533)">
        <g
           transform="translate(969.99469,594.80848)"
           id="g294">
          <g
             id="g292">
            <path
               d="M 6.234375,0 H 23.253906 V -58.980469 H 6.234375 Z m 0,0"
               id="path290" />
          </g>
        </g>
      </g>
      <g
         fill="#000000"
         fill-opacity="1"
         id="g304"
         transform="matrix(0.09430465,0,0,0.09430465,0.14600276,-41.433533)">
        <g
           transform="translate(999.48397,594.80848)"
           id="g302">
          <g
             id="g300">
            <path
               d="M 6.234375,0 H 47.605469 V -13.902344 H 23.085938 v -9.101562 H 44.40625 V -36.652344 H 23.085938 v -8.59375 h 23.59375 V -58.980469 H 6.234375 Z m 0,0"
               id="path298" />
          </g>
        </g>
      </g>
      <g
         fill="#000000"
         fill-opacity="1"
         id="g312"
         transform="matrix(0.09430465,0,0,0.09430465,0.14600276,-41.433533)"
         inkscape:export-filename="g312.svg"
         inkscape:export-xdpi="96"
         inkscape:export-ydpi="96">
        <g
           transform="translate(1050.8795,594.80848)"
           id="g310">
          <g
             id="g308">
            <path
               d="m 27.382812,1.265625 c 14.664063,0 23.339844,-6.910156 23.339844,-18.539063 0,-9.773437 -6.316406,-15.503906 -20.640625,-18.707031 -7.585937,-1.683593 -10.363281,-3.539062 -10.363281,-6.570312 0,-2.867188 2.527344,-4.636719 6.484375,-4.636719 4.71875,0 7.417969,2.445312 7.417969,6.910156 h 16.007812 c 0,-12.132812 -9.269531,-19.96875 -23.761718,-19.96875 -13.902344,0 -22.496094,6.910156 -22.496094,18.03125 0,9.941406 6.488281,16.09375 19.800781,18.621094 7.160156,1.433594 10.617187,3.625 10.617187,6.996094 0,2.949218 -2.527343,4.632812 -6.65625,4.632812 -4.886718,0 -7.753906,-2.613281 -7.753906,-7.164062 H 2.949219 c 0,12.726562 9.101562,20.394531 24.433593,20.394531 z m 0,0"
               id="path306" />
          </g>
        </g>
      </g>
    </g>
  </g>
</svg>
