<svg width="200" height="46" viewBox="0 0 200 46" fill="none" xmlns="http://www.w3.org/2000/svg">
<path d="M0.5 0.5H199.5V45.5H0.5V0.5Z" stroke="black"/>
<rect x="10" y="6" width="58" height="34" fill="black"/>
<path d="M18.624 29.192C17.7173 29.192 16.944 29.0213 16.304 28.68C15.664 28.328 15.12 27.848 14.672 27.24L15.664 26.408C16.0587 26.9307 16.496 27.3307 16.976 27.608C17.456 27.8747 18.0213 28.008 18.672 28.008C19.472 28.008 20.08 27.816 20.496 27.432C20.9227 27.048 21.136 26.536 21.136 25.896C21.136 25.3627 20.976 24.952 20.656 24.664C20.336 24.376 19.808 24.1467 19.072 23.976L18.16 23.768C17.136 23.5333 16.352 23.1813 15.808 22.712C15.2747 22.232 15.008 21.56 15.008 20.696C15.008 20.2053 15.0987 19.768 15.28 19.384C15.4613 19 15.712 18.68 16.032 18.424C16.3627 18.168 16.752 17.976 17.2 17.848C17.6587 17.7093 18.16 17.64 18.704 17.64C19.5467 17.64 20.2667 17.7947 20.864 18.104C21.472 18.4133 21.984 18.8667 22.4 19.464L21.392 20.2C21.0827 19.7733 20.7093 19.4373 20.272 19.192C19.8347 18.9467 19.2907 18.824 18.64 18.824C17.9253 18.824 17.36 18.9787 16.944 19.288C16.5387 19.5867 16.336 20.04 16.336 20.648C16.336 21.1813 16.5067 21.5867 16.848 21.864C17.2 22.1307 17.728 22.344 18.432 22.504L19.344 22.712C20.4427 22.9573 21.2373 23.3307 21.728 23.832C22.2187 24.3333 22.464 25 22.464 25.832C22.464 26.344 22.3733 26.808 22.192 27.224C22.0213 27.64 21.7707 27.992 21.44 28.28C21.1093 28.568 20.704 28.792 20.224 28.952C19.7547 29.112 19.2213 29.192 18.624 29.192ZM24.2569 29V27.88H25.8249V18.952H24.2569V17.832H28.7369V18.952H27.1689V27.88H28.7369V29H24.2569ZM33.8951 22.184L32.5511 19.704H32.5031V29H31.1911V17.832H32.7431L36.8231 24.648L38.1671 27.128H38.2151V17.832H39.5271V29H37.9751L33.8951 22.184ZM45.2076 22.184L43.8636 19.704H43.8156V29H42.5036V17.832H44.0556L48.1356 24.648L49.4796 27.128H49.5276V17.832H50.8396V29H49.2876L45.2076 22.184ZM57.9921 29.192C57.2668 29.192 56.6108 29.0693 56.0241 28.824C55.4481 28.568 54.9521 28.2 54.5361 27.72C54.1308 27.2293 53.8161 26.6267 53.5921 25.912C53.3681 25.1867 53.2561 24.3547 53.2561 23.416C53.2561 22.4773 53.3681 21.6507 53.5921 20.936C53.8161 20.2213 54.1308 19.6187 54.5361 19.128C54.9521 18.6373 55.4481 18.2693 56.0241 18.024C56.6108 17.768 57.2668 17.64 57.9921 17.64C58.7068 17.64 59.3575 17.768 59.9441 18.024C60.5308 18.2693 61.0268 18.6373 61.4321 19.128C61.8481 19.6187 62.1681 20.2213 62.3921 20.936C62.6161 21.6507 62.7281 22.4773 62.7281 23.416C62.7281 24.3547 62.6161 25.1867 62.3921 25.912C62.1681 26.6267 61.8481 27.2293 61.4321 27.72C61.0268 28.2 60.5308 28.568 59.9441 28.824C59.3575 29.0693 58.7068 29.192 57.9921 29.192ZM57.9921 27.992C58.4721 27.992 58.9148 27.9067 59.3201 27.736C59.7255 27.5653 60.0721 27.32 60.3601 27C60.6588 26.68 60.8881 26.296 61.0481 25.848C61.2081 25.4 61.2881 24.8987 61.2881 24.344V22.488C61.2881 21.9333 61.2081 21.432 61.0481 20.984C60.8881 20.536 60.6588 20.152 60.3601 19.832C60.0721 19.512 59.7255 19.2667 59.3201 19.096C58.9148 18.9253 58.4721 18.84 57.9921 18.84C57.5121 18.84 57.0695 18.9253 56.6641 19.096C56.2588 19.2667 55.9068 19.512 55.6081 19.832C55.3201 20.152 55.0961 20.536 54.9361 20.984C54.7761 21.432 54.6961 21.9333 54.6961 22.488V24.344C54.6961 24.8987 54.7761 25.4 54.9361 25.848C55.0961 26.296 55.3201 26.68 55.6081 27C55.9068 27.32 56.2588 27.5653 56.6641 27.736C57.0695 27.9067 57.5121 27.992 57.9921 27.992Z" fill="white"/>
<path d="M77.248 19.016V29H75.904V19.016H72.352V17.832H80.8V19.016H77.248ZM82.6443 29V17.832H89.4603V19.016H83.9883V22.76H89.1403V23.944H83.9883V27.816H89.4603V29H82.6443ZM95.9084 29.192C94.4897 29.192 93.3857 28.712 92.5964 27.752C91.807 26.7813 91.4124 25.3573 91.4124 23.48C91.4124 21.6027 91.807 20.1627 92.5964 19.16C93.3857 18.1467 94.4897 17.64 95.9084 17.64C96.847 17.64 97.631 17.8533 98.2604 18.28C98.9004 18.7067 99.3964 19.3093 99.7484 20.088L98.6604 20.744C98.4364 20.168 98.095 19.7093 97.6364 19.368C97.1777 19.016 96.6017 18.84 95.9084 18.84C95.4284 18.84 94.9964 18.9307 94.6124 19.112C94.239 19.2933 93.919 19.5547 93.6524 19.896C93.3964 20.2267 93.199 20.6267 93.0604 21.096C92.9217 21.5547 92.8524 22.072 92.8524 22.648V24.312C92.8524 25.464 93.119 26.3653 93.6524 27.016C94.1857 27.6667 94.9377 27.992 95.9084 27.992C96.623 27.992 97.2204 27.8107 97.7004 27.448C98.1804 27.0747 98.5324 26.584 98.7564 25.976L99.8284 26.648C99.4764 27.4373 98.9697 28.0613 98.3084 28.52C97.647 28.968 96.847 29.192 95.9084 29.192ZM108.902 23.944H103.254V29H101.91V17.832H103.254V22.76H108.902V17.832H110.246V29H108.902V23.944ZM115.926 22.184L114.582 19.704H114.534V29H113.222V17.832H114.774L118.854 24.648L120.198 27.128H120.246V17.832H121.558V29H120.006L115.926 22.184ZM128.711 29.192C127.986 29.192 127.33 29.0693 126.743 28.824C126.167 28.568 125.671 28.2 125.255 27.72C124.85 27.2293 124.535 26.6267 124.311 25.912C124.087 25.1867 123.975 24.3547 123.975 23.416C123.975 22.4773 124.087 21.6507 124.311 20.936C124.535 20.2213 124.85 19.6187 125.255 19.128C125.671 18.6373 126.167 18.2693 126.743 18.024C127.33 17.768 127.986 17.64 128.711 17.64C129.426 17.64 130.076 17.768 130.663 18.024C131.25 18.2693 131.746 18.6373 132.151 19.128C132.567 19.6187 132.887 20.2213 133.111 20.936C133.335 21.6507 133.447 22.4773 133.447 23.416C133.447 24.3547 133.335 25.1867 133.111 25.912C132.887 26.6267 132.567 27.2293 132.151 27.72C131.746 28.2 131.25 28.568 130.663 28.824C130.076 29.0693 129.426 29.192 128.711 29.192ZM128.711 27.992C129.191 27.992 129.634 27.9067 130.039 27.736C130.444 27.5653 130.791 27.32 131.079 27C131.378 26.68 131.607 26.296 131.767 25.848C131.927 25.4 132.007 24.8987 132.007 24.344V22.488C132.007 21.9333 131.927 21.432 131.767 20.984C131.607 20.536 131.378 20.152 131.079 19.832C130.791 19.512 130.444 19.2667 130.039 19.096C129.634 18.9253 129.191 18.84 128.711 18.84C128.231 18.84 127.788 18.9253 127.383 19.096C126.978 19.2667 126.626 19.512 126.327 19.832C126.039 20.152 125.815 20.536 125.655 20.984C125.495 21.432 125.415 21.9333 125.415 22.488V24.344C125.415 24.8987 125.495 25.4 125.655 25.848C125.815 26.296 126.039 26.68 126.327 27C126.626 27.32 126.978 27.5653 127.383 27.736C127.788 27.9067 128.231 27.992 128.711 27.992ZM135.863 29V17.832H137.207V27.816H141.959V29H135.863ZM147.57 29.192C146.845 29.192 146.189 29.0693 145.602 28.824C145.026 28.568 144.53 28.2 144.114 27.72C143.709 27.2293 143.394 26.6267 143.17 25.912C142.946 25.1867 142.834 24.3547 142.834 23.416C142.834 22.4773 142.946 21.6507 143.17 20.936C143.394 20.2213 143.709 19.6187 144.114 19.128C144.53 18.6373 145.026 18.2693 145.602 18.024C146.189 17.768 146.845 17.64 147.57 17.64C148.285 17.64 148.936 17.768 149.522 18.024C150.109 18.2693 150.605 18.6373 151.01 19.128C151.426 19.6187 151.746 20.2213 151.97 20.936C152.194 21.6507 152.306 22.4773 152.306 23.416C152.306 24.3547 152.194 25.1867 151.97 25.912C151.746 26.6267 151.426 27.2293 151.01 27.72C150.605 28.2 150.109 28.568 149.522 28.824C148.936 29.0693 148.285 29.192 147.57 29.192ZM147.57 27.992C148.05 27.992 148.493 27.9067 148.898 27.736C149.304 27.5653 149.65 27.32 149.938 27C150.237 26.68 150.466 26.296 150.626 25.848C150.786 25.4 150.866 24.8987 150.866 24.344V22.488C150.866 21.9333 150.786 21.432 150.626 20.984C150.466 20.536 150.237 20.152 149.938 19.832C149.65 19.512 149.304 19.2667 148.898 19.096C148.493 18.9253 148.05 18.84 147.57 18.84C147.09 18.84 146.648 18.9253 146.242 19.096C145.837 19.2667 145.485 19.512 145.186 19.832C144.898 20.152 144.674 20.536 144.514 20.984C144.354 21.432 144.274 21.9333 144.274 22.488V24.344C144.274 24.8987 144.354 25.4 144.514 25.848C144.674 26.296 144.898 26.68 145.186 27C145.485 27.32 145.837 27.5653 146.242 27.736C146.648 27.9067 147.09 27.992 147.57 27.992ZM161.954 27.368H161.906C161.768 27.8907 161.426 28.328 160.882 28.68C160.349 29.0213 159.656 29.192 158.802 29.192C158.12 29.192 157.49 29.0693 156.914 28.824C156.349 28.568 155.864 28.2 155.458 27.72C155.053 27.2293 154.733 26.6267 154.498 25.912C154.274 25.1867 154.162 24.3547 154.162 23.416C154.162 22.488 154.274 21.6667 154.498 20.952C154.722 20.2267 155.042 19.624 155.458 19.144C155.874 18.6533 156.376 18.28 156.962 18.024C157.549 17.768 158.2 17.64 158.914 17.64C159.917 17.64 160.754 17.864 161.426 18.312C162.098 18.76 162.616 19.352 162.978 20.088L161.874 20.76C161.618 20.1627 161.234 19.6933 160.722 19.352C160.221 19.0107 159.618 18.84 158.914 18.84C158.424 18.84 157.976 18.9307 157.57 19.112C157.165 19.2827 156.813 19.528 156.514 19.848C156.226 20.168 156.002 20.552 155.842 21C155.682 21.448 155.602 21.9493 155.602 22.504V24.312C155.602 24.8667 155.682 25.3733 155.842 25.832C156.002 26.28 156.226 26.664 156.514 26.984C156.813 27.304 157.176 27.5547 157.602 27.736C158.029 27.9067 158.509 27.992 159.042 27.992C159.426 27.992 159.789 27.944 160.13 27.848C160.482 27.7413 160.786 27.5867 161.042 27.384C161.309 27.1813 161.517 26.9307 161.666 26.632C161.816 26.3227 161.89 25.96 161.89 25.544V24.44H159.426V23.256H163.202V29H161.954V27.368ZM165.319 29V27.88H166.887V18.952H165.319V17.832H169.799V18.952H168.231V27.88H169.799V29H165.319ZM172.254 29V17.832H179.07V19.016H173.598V22.76H178.75V23.944H173.598V27.816H179.07V29H172.254ZM184.718 29.192C183.811 29.192 183.038 29.0213 182.398 28.68C181.758 28.328 181.214 27.848 180.766 27.24L181.758 26.408C182.152 26.9307 182.59 27.3307 183.07 27.608C183.55 27.8747 184.115 28.008 184.766 28.008C185.566 28.008 186.174 27.816 186.59 27.432C187.016 27.048 187.23 26.536 187.23 25.896C187.23 25.3627 187.07 24.952 186.75 24.664C186.43 24.376 185.902 24.1467 185.166 23.976L184.254 23.768C183.23 23.5333 182.446 23.1813 181.902 22.712C181.368 22.232 181.102 21.56 181.102 20.696C181.102 20.2053 181.192 19.768 181.374 19.384C181.555 19 181.806 18.68 182.126 18.424C182.456 18.168 182.846 17.976 183.294 17.848C183.752 17.7093 184.254 17.64 184.798 17.64C185.64 17.64 186.36 17.7947 186.958 18.104C187.566 18.4133 188.078 18.8667 188.494 19.464L187.486 20.2C187.176 19.7733 186.803 19.4373 186.366 19.192C185.928 18.9467 185.384 18.824 184.734 18.824C184.019 18.824 183.454 18.9787 183.038 19.288C182.632 19.5867 182.43 20.04 182.43 20.648C182.43 21.1813 182.6 21.5867 182.942 21.864C183.294 22.1307 183.822 22.344 184.526 22.504L185.438 22.712C186.536 22.9573 187.331 23.3307 187.822 23.832C188.312 24.3333 188.558 25 188.558 25.832C188.558 26.344 188.467 26.808 188.286 27.224C188.115 27.64 187.864 27.992 187.534 28.28C187.203 28.568 186.798 28.792 186.318 28.952C185.848 29.112 185.315 29.192 184.718 29.192Z" fill="black"/>
</svg>
