<svg xmlns="http://www.w3.org/2000/svg" xmlns:xlink="http://www.w3.org/1999/xlink" width="1500" zoomAndPan="magnify" viewBox="0 0 1125 1124.99995" height="500" preserveAspectRatio="xMidYMid meet" version="1.0"><defs><g/><clipPath id="0a27f62432"><path d="M 12.691406 454.394531 L 1112.941406 454.394531 L 1112.941406 670.394531 L 12.691406 670.394531 Z M 12.691406 454.394531 " clip-rule="nonzero"/></clipPath><clipPath id="ab0a7976ac"><path d="M 30.3125 474.710938 L 401.5625 474.710938 L 401.5625 650.210938 L 30.3125 650.210938 Z M 30.3125 474.710938 " clip-rule="nonzero"/></clipPath></defs><g clip-path="url(#0a27f62432)"><path stroke-linecap="butt" transform="matrix(0.75008, 0, 0, 0.749268, 12.691402, 454.394293)" fill="none" stroke-linejoin="miter" d="M 0.00000600319 0.000318148 L 1466.843919 0.000318148 L 1466.843919 288.281604 L 0.00000600319 288.281604 L 0.00000600319 0.000318148 " stroke="#000000" stroke-width="6" stroke-opacity="1" stroke-miterlimit="4"/></g><g clip-path="url(#ab0a7976ac)"><path fill="#000000" d="M 30.320312 474.710938 L 401.558594 474.710938 L 401.558594 650.210938 L 30.320312 650.210938 L 30.320312 474.710938 " fill-opacity="1" fill-rule="nonzero"/></g><g fill="#ffffff" fill-opacity="1"><g transform="translate(64.206977, 592.104721)"><g><path d="M 28.226562 1.09375 C 41.121094 1.09375 49.460938 -5.222656 49.460938 -15.503906 C 49.460938 -24.183594 43.648438 -29.40625 28.566406 -33.113281 C 17.105469 -35.894531 13.3125 -38.929688 13.3125 -43.816406 C 13.3125 -49.460938 18.371094 -53 26.796875 -53 C 35.472656 -53 40.867188 -48.621094 41.035156 -41.542969 L 48.367188 -41.542969 C 48.28125 -53 40.023438 -60.078125 26.796875 -60.078125 C 13.902344 -60.078125 5.730469 -53.757812 5.730469 -43.816406 C 5.730469 -34.714844 12.21875 -29.660156 26.710938 -26.207031 C 37.328125 -23.679688 41.792969 -20.730469 41.792969 -15.25 C 41.792969 -9.4375 36.570312 -5.984375 28.226562 -5.984375 C 19.042969 -5.984375 12.640625 -10.53125 12.472656 -18.117188 L 5.054688 -18.117188 C 5.140625 -6.574219 14.15625 1.09375 28.226562 1.09375 Z M 28.226562 1.09375 "/></g></g></g><g fill="#ffffff" fill-opacity="1"><g transform="translate(125.110935, 592.104721)"><g><path d="M 8.59375 0 L 16.011719 0 L 16.011719 -58.984375 L 8.59375 -58.984375 Z M 8.59375 0 "/></g></g></g><g fill="#ffffff" fill-opacity="1"><g transform="translate(156.111724, 592.104721)"><g><path d="M 8.59375 0 L 15.925781 0 L 15.925781 -46.175781 L 48.535156 0 L 55.445312 0 L 55.445312 -58.984375 L 48.199219 -58.984375 L 48.199219 -12.808594 L 15.589844 -58.984375 L 8.59375 -58.984375 Z M 8.59375 0 "/></g></g></g><g fill="#ffffff" fill-opacity="1"><g transform="translate(226.534133, 592.104721)"><g><path d="M 8.59375 0 L 15.925781 0 L 15.925781 -46.175781 L 48.535156 0 L 55.445312 0 L 55.445312 -58.984375 L 48.199219 -58.984375 L 48.199219 -12.808594 L 15.589844 -58.984375 L 8.59375 -58.984375 Z M 8.59375 0 "/></g></g></g><g fill="#ffffff" fill-opacity="1"><g transform="translate(296.956541, 592.104721)"><g><path d="M 35.390625 1.09375 C 53.339844 1.09375 65.976562 -11.542969 65.976562 -29.492188 C 65.976562 -47.441406 53.339844 -60.078125 35.390625 -60.078125 C 17.441406 -60.078125 4.886719 -47.441406 4.886719 -29.492188 C 4.886719 -11.542969 17.441406 1.09375 35.390625 1.09375 Z M 12.472656 -29.492188 C 12.472656 -43.226562 21.824219 -52.664062 35.390625 -52.664062 C 48.957031 -52.664062 58.308594 -43.226562 58.308594 -29.492188 C 58.308594 -15.757812 48.957031 -6.320312 35.390625 -6.320312 C 21.824219 -6.320312 12.472656 -15.757812 12.472656 -29.492188 Z M 12.472656 -29.492188 "/></g></g></g><g fill="#000000" fill-opacity="1"><g transform="translate(405.233144, 594.808483)"><g><path d="M 20.308594 0 L 37.242188 0 L 37.242188 -43.226562 L 55.191406 -43.226562 L 55.191406 -58.980469 L 2.359375 -58.980469 L 2.359375 -43.226562 L 20.308594 -43.226562 Z M 20.308594 0 "/></g></g></g><g fill="#000000" fill-opacity="1"><g transform="translate(462.77934, 594.808483)"><g><path d="M 6.234375 0 L 47.605469 0 L 47.605469 -13.902344 L 23.085938 -13.902344 L 23.085938 -23.003906 L 44.40625 -23.003906 L 44.40625 -36.652344 L 23.085938 -36.652344 L 23.085938 -45.246094 L 46.679688 -45.246094 L 46.679688 -58.980469 L 6.234375 -58.980469 Z M 6.234375 0 "/></g></g></g><g fill="#000000" fill-opacity="1"><g transform="translate(514.174905, 594.808483)"><g><path d="M 33.789062 1.265625 C 50.050781 1.265625 62.351562 -8.59375 64.878906 -23.59375 L 47.605469 -23.59375 C 45.5 -18.03125 40.527344 -14.492188 34.125 -14.492188 C 25.867188 -14.492188 20.136719 -20.644531 20.136719 -29.492188 C 20.136719 -38.421875 25.953125 -44.488281 34.292969 -44.488281 C 40.445312 -44.488281 45.585938 -41.035156 47.355469 -35.726562 L 64.542969 -35.726562 C 61.511719 -50.640625 49.375 -60.246094 33.621094 -60.246094 C 15.417969 -60.246094 2.863281 -47.691406 2.863281 -29.492188 C 2.863281 -11.289062 15.417969 1.265625 33.789062 1.265625 Z M 33.789062 1.265625 "/></g></g></g><g fill="#000000" fill-opacity="1"><g transform="translate(581.747436, 594.808483)"><g><path d="M 41.457031 0 L 58.476562 0 L 58.476562 -58.980469 L 41.457031 -58.980469 L 41.457031 -37.832031 L 23.253906 -37.832031 L 23.253906 -58.980469 L 6.234375 -58.980469 L 6.234375 0 L 23.253906 0 L 23.253906 -22.160156 L 41.457031 -22.160156 Z M 41.457031 0 "/></g></g></g><g fill="#000000" fill-opacity="1"><g transform="translate(646.455312, 594.808483)"><g><path d="M 6.234375 0 L 23.085938 0 L 23.085938 -30.082031 L 45.5 0 L 59.320312 0 L 59.320312 -58.980469 L 42.550781 -58.980469 L 42.550781 -29.070312 L 20.136719 -58.980469 L 6.234375 -58.980469 Z M 6.234375 0 "/></g></g></g><g fill="#000000" fill-opacity="1"><g transform="translate(712.089991, 594.808483)"><g><path d="M 34.96875 1.265625 C 53.757812 1.265625 67.070312 -11.460938 67.070312 -29.492188 C 67.070312 -47.523438 53.757812 -60.246094 34.96875 -60.246094 C 16.179688 -60.246094 2.863281 -47.523438 2.863281 -29.492188 C 2.863281 -11.460938 16.179688 1.265625 34.96875 1.265625 Z M 20.136719 -29.492188 C 20.136719 -38.339844 26.289062 -44.488281 34.96875 -44.488281 C 43.730469 -44.488281 49.796875 -38.339844 49.796875 -29.492188 C 49.796875 -20.644531 43.730469 -14.492188 34.96875 -14.492188 C 26.289062 -14.492188 20.136719 -20.644531 20.136719 -29.492188 Z M 20.136719 -29.492188 "/></g></g></g><g fill="#000000" fill-opacity="1"><g transform="translate(782.105942, 594.808483)"><g><path d="M 6.234375 0 L 47.355469 0 L 47.355469 -15.757812 L 23.253906 -15.757812 L 23.253906 -58.980469 L 6.234375 -58.980469 Z M 6.234375 0 "/></g></g></g><g fill="#000000" fill-opacity="1"><g transform="translate(831.563652, 594.808483)"><g><path d="M 34.96875 1.265625 C 53.757812 1.265625 67.070312 -11.460938 67.070312 -29.492188 C 67.070312 -47.523438 53.757812 -60.246094 34.96875 -60.246094 C 16.179688 -60.246094 2.863281 -47.523438 2.863281 -29.492188 C 2.863281 -11.460938 16.179688 1.265625 34.96875 1.265625 Z M 20.136719 -29.492188 C 20.136719 -38.339844 26.289062 -44.488281 34.96875 -44.488281 C 43.730469 -44.488281 49.796875 -38.339844 49.796875 -29.492188 C 49.796875 -20.644531 43.730469 -14.492188 34.96875 -14.492188 C 26.289062 -14.492188 20.136719 -20.644531 20.136719 -29.492188 Z M 20.136719 -29.492188 "/></g></g></g><g fill="#000000" fill-opacity="1"><g transform="translate(901.579604, 594.808483)"><g><path d="M 34.378906 1.265625 C 54.683594 1.265625 67.40625 -13.480469 65.554688 -34.210938 L 31.429688 -34.210938 L 31.429688 -22.246094 L 47.691406 -22.246094 C 46.007812 -17.273438 41.289062 -13.902344 34.546875 -13.902344 C 25.109375 -13.902344 19.632812 -20.558594 19.632812 -29.492188 C 19.632812 -38.757812 25.613281 -45.078125 34.378906 -45.078125 C 39.601562 -45.078125 44.066406 -42.804688 46.34375 -39.097656 L 64.457031 -39.097656 C 61.003906 -51.988281 49.039062 -60.246094 34.125 -60.246094 C 15.589844 -60.246094 2.863281 -47.605469 2.863281 -29.492188 C 2.863281 -11.289062 15.671875 1.265625 34.378906 1.265625 Z M 34.378906 1.265625 "/></g></g></g><g fill="#000000" fill-opacity="1"><g transform="translate(969.994692, 594.808483)"><g><path d="M 6.234375 0 L 23.253906 0 L 23.253906 -58.980469 L 6.234375 -58.980469 Z M 6.234375 0 "/></g></g></g><g fill="#000000" fill-opacity="1"><g transform="translate(999.483973, 594.808483)"><g><path d="M 6.234375 0 L 47.605469 0 L 47.605469 -13.902344 L 23.085938 -13.902344 L 23.085938 -23.003906 L 44.40625 -23.003906 L 44.40625 -36.652344 L 23.085938 -36.652344 L 23.085938 -45.246094 L 46.679688 -45.246094 L 46.679688 -58.980469 L 6.234375 -58.980469 Z M 6.234375 0 "/></g></g></g><g fill="#000000" fill-opacity="1"><g transform="translate(1050.879538, 594.808483)"><g><path d="M 27.382812 1.265625 C 42.046875 1.265625 50.722656 -5.644531 50.722656 -17.273438 C 50.722656 -27.046875 44.40625 -32.777344 30.082031 -35.980469 C 22.496094 -37.664062 19.71875 -39.519531 19.71875 -42.550781 C 19.71875 -45.417969 22.246094 -47.1875 26.203125 -47.1875 C 30.921875 -47.1875 33.621094 -44.742188 33.621094 -40.277344 L 49.628906 -40.277344 C 49.628906 -52.410156 40.359375 -60.246094 25.867188 -60.246094 C 11.964844 -60.246094 3.371094 -53.335938 3.371094 -42.214844 C 3.371094 -32.273438 9.859375 -26.121094 23.171875 -23.59375 C 30.332031 -22.160156 33.789062 -19.96875 33.789062 -16.597656 C 33.789062 -13.648438 31.261719 -11.964844 27.132812 -11.964844 C 22.246094 -11.964844 19.378906 -14.578125 19.378906 -19.128906 L 2.949219 -19.128906 C 2.949219 -6.402344 12.050781 1.265625 27.382812 1.265625 Z M 27.382812 1.265625 "/></g></g></g></svg>