<svg width="128" height="128" viewBox="0 0 128 128" fill="none" xmlns="http://www.w3.org/2000/svg">
<g clip-path="url(#clip0_1_2)">
<rect width="128" height="128" fill="white"/>
<path d="M16.375 67.625V59.25H8V50.875H24.75V59.25H49.875V42.5H16.375V34.125H8V17.375H16.375V9H58.25V17.375H66.625V25.75H49.875V17.375H24.75V34.125H58.25V42.5H66.625V59.25H58.25V67.625H16.375Z" fill="black"/>
<path d="M16.375 67.625H15.375V68.625H16.375V67.625ZM16.375 59.25H17.375V58.25H16.375V59.25ZM8 59.25H7V60.25H8V59.25ZM8 50.875V49.875H7V50.875H8ZM24.75 50.875H25.75V49.875H24.75V50.875ZM24.75 59.25H23.75V60.25H24.75V59.25ZM49.875 59.25V60.25H50.875V59.25H49.875ZM49.875 42.5H50.875V41.5H49.875V42.5ZM16.375 42.5H15.375V43.5H16.375V42.5ZM16.375 34.125H17.375V33.125H16.375V34.125ZM8 34.125H7V35.125H8V34.125ZM8 17.375V16.375H7V17.375H8ZM16.375 17.375V18.375H17.375V17.375H16.375ZM16.375 9V8H15.375V9H16.375ZM58.25 9H59.25V8H58.25V9ZM58.25 17.375H57.25V18.375H58.25V17.375ZM66.625 17.375H67.625V16.375H66.625V17.375ZM66.625 25.75V26.75H67.625V25.75H66.625ZM49.875 25.75H48.875V26.75H49.875V25.75ZM49.875 17.375H50.875V16.375H49.875V17.375ZM24.75 17.375V16.375H23.75V17.375H24.75ZM24.75 34.125H23.75V35.125H24.75V34.125ZM58.25 34.125H59.25V33.125H58.25V34.125ZM58.25 42.5H57.25V43.5H58.25V42.5ZM66.625 42.5H67.625V41.5H66.625V42.5ZM66.625 59.25V60.25H67.625V59.25H66.625ZM58.25 59.25V58.25H57.25V59.25H58.25ZM58.25 67.625V68.625H59.25V67.625H58.25ZM17.375 67.625V59.25H15.375V67.625H17.375ZM16.375 58.25H8V60.25H16.375V58.25ZM9 59.25V50.875H7V59.25H9ZM8 51.875H24.75V49.875H8V51.875ZM23.75 50.875V59.25H25.75V50.875H23.75ZM24.75 60.25H49.875V58.25H24.75V60.25ZM50.875 59.25V42.5H48.875V59.25H50.875ZM49.875 41.5H16.375V43.5H49.875V41.5ZM17.375 42.5V34.125H15.375V42.5H17.375ZM16.375 33.125H8V35.125H16.375V33.125ZM9 34.125V17.375H7V34.125H9ZM8 18.375H16.375V16.375H8V18.375ZM17.375 17.375V9H15.375V17.375H17.375ZM16.375 10H58.25V8H16.375V10ZM57.25 9V17.375H59.25V9H57.25ZM58.25 18.375H66.625V16.375H58.25V18.375ZM65.625 17.375V25.75H67.625V17.375H65.625ZM66.625 24.75H49.875V26.75H66.625V24.75ZM50.875 25.75V17.375H48.875V25.75H50.875ZM49.875 16.375H24.75V18.375H49.875V16.375ZM23.75 17.375V34.125H25.75V17.375H23.75ZM24.75 35.125H58.25V33.125H24.75V35.125ZM57.25 34.125V42.5H59.25V34.125H57.25ZM58.25 43.5H66.625V41.5H58.25V43.5ZM65.625 42.5V59.25H67.625V42.5H65.625ZM66.625 58.25H58.25V60.25H66.625V58.25ZM57.25 59.25V67.625H59.25V59.25H57.25ZM58.25 66.625H16.375V68.625H58.25V66.625Z" fill="white"/>
<path d="M86.125 115.625V65.375H69.375V57H119.625V65.375H102.875V115.625H86.125Z" fill="black"/>
<path d="M86.125 115.625H85.125V116.625H86.125V115.625ZM86.125 65.375H87.125V64.375H86.125V65.375ZM69.375 65.375H68.375V66.375H69.375V65.375ZM69.375 57V56H68.375V57H69.375ZM119.625 57H120.625V56H119.625V57ZM119.625 65.375V66.375H120.625V65.375H119.625ZM102.875 65.375V64.375H101.875V65.375H102.875ZM102.875 115.625V116.625H103.875V115.625H102.875ZM87.125 115.625V65.375H85.125V115.625H87.125ZM86.125 64.375H69.375V66.375H86.125V64.375ZM70.375 65.375V57H68.375V65.375H70.375ZM69.375 58H119.625V56H69.375V58ZM118.625 57V65.375H120.625V57H118.625ZM119.625 64.375H102.875V66.375H119.625V64.375ZM101.875 65.375V115.625H103.875V65.375H101.875ZM102.875 114.625H86.125V116.625H102.875V114.625Z" fill="white"/>
</g>
<defs>
<clipPath id="clip0_1_2">
<rect width="128" height="128" fill="white"/>
</clipPath>
</defs>
</svg>
