<svg data-v-423bf9ae="" xmlns="http://www.w3.org/2000/svg" viewBox="0 0 378.3032550075218 60" class="font"><!----><!----><!----><g data-v-423bf9ae="" id="19013351-b6fc-4d3f-b405-83febea094d2" fill="white" transform="matrix(5.415162492161021,0,0,5.415162492161021,-0.5956617693099417,-11.805053879156382)"><path d="M5.60 3.35L5.60 10.00L5.60 10.00Q5.60 10.70 5.46 11.29L5.46 11.29L5.46 11.29Q5.32 11.89 4.98 12.33L4.98 12.33L4.98 12.33Q4.63 12.77 4.07 13.01L4.07 13.01L4.07 13.01Q3.50 13.26 2.65 13.26L2.65 13.26L2.65 13.26Q2.14 13.26 1.72 13.17L1.72 13.17L1.72 13.17Q1.30 13.08 0.98 12.95L0.98 12.95L0.98 12.95Q0.66 12.82 0.44 12.68L0.44 12.68L0.44 12.68Q0.22 12.54 0.11 12.43L0.11 12.43L0.56 11.66L0.56 11.66Q0.69 11.77 0.88 11.91L0.88 11.91L0.88 11.91Q1.06 12.04 1.32 12.15L1.32 12.15L1.32 12.15Q1.57 12.26 1.88 12.33L1.88 12.33L1.88 12.33Q2.18 12.40 2.55 12.40L2.55 12.40L2.55 12.40Q3.63 12.40 4.14 11.84L4.14 11.84L4.14 11.84Q4.65 11.27 4.65 9.90L4.65 9.90L4.65 3.35L5.60 3.35ZM10.30 12.39L10.30 12.39L10.30 12.39Q10.84 12.39 11.23 12.36L11.23 12.36L11.23 12.36Q11.63 12.32 11.91 12.26L11.91 12.26L11.91 9.72L11.91 9.72Q11.76 9.65 11.42 9.57L11.42 9.57L11.42 9.57Q11.09 9.49 10.50 9.49L10.50 9.49L10.50 9.49Q10.16 9.49 9.80 9.54L9.80 9.54L9.80 9.54Q9.44 9.59 9.13 9.75L9.13 9.75L9.13 9.75Q8.82 9.91 8.62 10.19L8.62 10.19L8.62 10.19Q8.43 10.47 8.43 10.93L8.43 10.93L8.43 10.93Q8.43 11.34 8.56 11.62L8.56 11.62L8.56 11.62Q8.69 11.90 8.94 12.07L8.94 12.07L8.94 12.07Q9.18 12.24 9.53 12.31L9.53 12.31L9.53 12.31Q9.87 12.39 10.30 12.39ZM10.22 5.64L10.22 5.64L10.22 5.64Q10.93 5.64 11.43 5.84L11.43 5.84L11.43 5.84Q11.93 6.05 12.24 6.41L12.24 6.41L12.24 6.41Q12.54 6.76 12.68 7.25L12.68 7.25L12.68 7.25Q12.82 7.74 12.82 8.32L12.82 8.32L12.82 12.88L12.82 12.88Q12.68 12.92 12.42 12.97L12.42 12.97L12.42 12.97Q12.15 13.02 11.80 13.08L11.80 13.08L11.80 13.08Q11.45 13.13 11.03 13.17L11.03 13.17L11.03 13.17Q10.60 13.20 10.15 13.20L10.15 13.20L10.15 13.20Q9.58 13.20 9.09 13.08L9.09 13.08L9.09 13.08Q8.61 12.95 8.25 12.68L8.25 12.68L8.25 12.68Q7.90 12.40 7.69 11.98L7.69 11.98L7.69 11.98Q7.49 11.55 7.49 10.93L7.49 10.93L7.49 10.93Q7.49 10.35 7.71 9.93L7.71 9.93L7.71 9.93Q7.94 9.51 8.34 9.23L8.34 9.23L8.34 9.23Q8.75 8.96 9.31 8.83L9.31 8.83L9.31 8.83Q9.87 8.71 10.53 8.71L10.53 8.71L10.53 8.71Q10.72 8.71 10.94 8.73L10.94 8.73L10.94 8.73Q11.16 8.75 11.36 8.79L11.36 8.79L11.36 8.79Q11.56 8.82 11.71 8.86L11.71 8.86L11.71 8.86Q11.86 8.89 11.91 8.92L11.91 8.92L11.91 8.47L11.91 8.47Q11.91 8.09 11.86 7.74L11.86 7.74L11.86 7.74Q11.80 7.38 11.61 7.09L11.61 7.09L11.61 7.09Q11.42 6.80 11.08 6.63L11.08 6.63L11.08 6.63Q10.74 6.45 10.18 6.45L10.18 6.45L10.18 6.45Q9.38 6.45 8.99 6.57L8.99 6.57L8.99 6.57Q8.60 6.68 8.41 6.75L8.41 6.75L8.29 5.95L8.29 5.95Q8.53 5.84 9.02 5.74L9.02 5.74L9.02 5.74Q9.52 5.64 10.22 5.64ZM15.15 13.05L15.15 6.06L15.15 6.06Q15.55 5.95 16.21 5.81L16.21 5.81L16.21 5.81Q16.86 5.67 17.89 5.67L17.89 5.67L17.89 5.67Q19.26 5.67 19.88 6.47L19.88 6.47L19.88 6.47Q19.95 6.41 20.15 6.28L20.15 6.28L20.15 6.28Q20.36 6.15 20.66 6.01L20.66 6.01L20.66 6.01Q20.97 5.87 21.39 5.77L21.39 5.77L21.39 5.77Q21.80 5.67 22.30 5.67L22.30 5.67L22.30 5.67Q23.13 5.67 23.64 5.92L23.64 5.92L23.64 5.92Q24.15 6.16 24.43 6.60L24.43 6.60L24.43 6.60Q24.71 7.04 24.81 7.66L24.81 7.66L24.81 7.66Q24.91 8.27 24.91 9.00L24.91 9.00L24.91 13.05L24.00 13.05L24.00 9.30L24.00 9.30Q24.00 8.58 23.93 8.06L23.93 8.06L23.93 8.06Q23.87 7.53 23.68 7.19L23.68 7.19L23.68 7.19Q23.49 6.85 23.14 6.67L23.14 6.67L23.14 6.67Q22.79 6.50 22.23 6.50L22.23 6.50L22.23 6.50Q21.81 6.50 21.47 6.57L21.47 6.57L21.47 6.57Q21.13 6.65 20.87 6.76L20.87 6.76L20.87 6.76Q20.62 6.87 20.46 6.99L20.46 6.99L20.46 6.99Q20.30 7.10 20.23 7.15L20.23 7.15L20.23 7.15Q20.36 7.52 20.42 7.97L20.42 7.97L20.42 7.97Q20.48 8.43 20.48 8.93L20.48 8.93L20.48 13.05L19.57 13.05L19.57 9.30L19.57 9.30Q19.57 8.58 19.51 8.06L19.51 8.06L19.51 8.06Q19.45 7.53 19.25 7.19L19.25 7.19L19.25 7.19Q19.05 6.85 18.70 6.67L18.70 6.67L18.70 6.67Q18.34 6.50 17.75 6.50L17.75 6.50L17.75 6.50Q17.09 6.50 16.64 6.57L16.64 6.57L16.64 6.57Q16.18 6.64 16.06 6.69L16.06 6.69L16.06 13.05L15.15 13.05ZM28.14 5.81L28.14 13.05L27.23 13.05L27.23 5.81L28.14 5.81ZM28.35 3.63L28.35 3.63L28.35 3.63Q28.35 3.95 28.15 4.14L28.15 4.14L28.15 4.14Q27.96 4.33 27.68 4.33L27.68 4.33L27.68 4.33Q27.40 4.33 27.20 4.14L27.20 4.14L27.20 4.14Q27.01 3.95 27.01 3.63L27.01 3.63L27.01 3.63Q27.01 3.30 27.20 3.12L27.20 3.12L27.20 3.12Q27.40 2.93 27.68 2.93L27.68 2.93L27.68 2.93Q27.96 2.93 28.15 3.12L28.15 3.12L28.15 3.12Q28.35 3.30 28.35 3.63ZM32.51 12.42L32.38 13.17L32.38 13.17Q31.92 13.16 31.58 13.05L31.58 13.05L31.58 13.05Q31.23 12.95 31.00 12.73L31.00 12.73L31.00 12.73Q30.77 12.52 30.65 12.17L30.65 12.17L30.65 12.17Q30.53 11.83 30.53 11.31L30.53 11.31L30.53 2.35L31.44 2.18L31.44 11.28L31.44 11.28Q31.44 11.62 31.51 11.82L31.51 11.82L31.51 11.82Q31.57 12.03 31.70 12.14L31.70 12.14L31.70 12.14Q31.82 12.26 32.03 12.32L32.03 12.32L32.03 12.32Q32.23 12.38 32.51 12.42L32.51 12.42ZM39.45 12.43L39.45 12.43L39.45 12.43Q40.59 12.43 41.22 12.02L41.22 12.02L41.22 12.02Q41.85 11.61 41.85 10.68L41.85 10.68L41.85 10.68Q41.85 10.15 41.64 9.79L41.64 9.79L41.64 9.79Q41.44 9.44 41.10 9.19L41.10 9.19L41.10 9.19Q40.77 8.95 40.33 8.77L40.33 8.77L40.33 8.77Q39.90 8.60 39.42 8.40L39.42 8.40L39.42 8.40Q38.82 8.16 38.35 7.91L38.35 7.91L38.35 7.91Q37.87 7.66 37.53 7.34L37.53 7.34L37.53 7.34Q37.20 7.03 37.02 6.62L37.02 6.62L37.02 6.62Q36.85 6.22 36.85 5.67L36.85 5.67L36.85 5.67Q36.85 4.42 37.67 3.78L37.67 3.78L37.67 3.78Q38.50 3.14 39.97 3.14L39.97 3.14L39.97 3.14Q40.36 3.14 40.74 3.19L40.74 3.19L40.74 3.19Q41.12 3.25 41.45 3.34L41.45 3.34L41.45 3.34Q41.78 3.43 42.05 3.54L42.05 3.54L42.05 3.54Q42.32 3.65 42.50 3.78L42.50 3.78L42.17 4.58L42.17 4.58Q41.76 4.30 41.18 4.13L41.18 4.13L41.18 4.13Q40.60 3.96 39.93 3.96L39.93 3.96L39.93 3.96Q39.47 3.96 39.08 4.05L39.08 4.05L39.08 4.05Q38.70 4.14 38.42 4.35L38.42 4.35L38.42 4.35Q38.14 4.55 37.98 4.86L37.98 4.86L37.98 4.86Q37.81 5.17 37.81 5.60L37.81 5.60L37.81 5.60Q37.81 6.05 37.98 6.36L37.98 6.36L37.98 6.36Q38.15 6.66 38.45 6.89L38.45 6.89L38.45 6.89Q38.75 7.11 39.16 7.29L39.16 7.29L39.16 7.29Q39.56 7.48 40.04 7.67L40.04 7.67L40.04 7.67Q40.61 7.91 41.13 8.15L41.13 8.15L41.13 8.15Q41.64 8.39 42.01 8.71L42.01 8.71L42.01 8.71Q42.39 9.03 42.62 9.49L42.62 9.49L42.62 9.49Q42.84 9.95 42.84 10.63L42.84 10.63L42.84 10.63Q42.84 11.94 41.92 12.60L41.92 12.60L41.92 12.60Q41.01 13.26 39.44 13.26L39.44 13.26L39.44 13.26Q38.88 13.26 38.42 13.19L38.42 13.19L38.42 13.19Q37.95 13.12 37.59 13.01L37.59 13.01L37.59 13.01Q37.23 12.91 36.97 12.80L36.97 12.80L36.97 12.80Q36.72 12.68 36.58 12.60L36.58 12.60L36.89 11.77L36.89 11.77Q37.03 11.86 37.27 11.97L37.27 11.97L37.27 11.97Q37.51 12.08 37.83 12.19L37.83 12.19L37.83 12.19Q38.15 12.29 38.56 12.36L38.56 12.36L38.56 12.36Q38.96 12.43 39.45 12.43ZM45.46 5.81L45.46 13.05L44.55 13.05L44.55 5.81L45.46 5.81ZM45.67 3.63L45.67 3.63L45.67 3.63Q45.67 3.95 45.47 4.14L45.47 4.14L45.47 4.14Q45.28 4.33 45.00 4.33L45.00 4.33L45.00 4.33Q44.72 4.33 44.52 4.14L44.52 4.14L44.52 4.14Q44.32 3.95 44.32 3.63L44.32 3.63L44.32 3.63Q44.32 3.30 44.52 3.12L44.52 3.12L44.52 3.12Q44.72 2.93 45.00 2.93L45.00 2.93L45.00 2.93Q45.28 2.93 45.47 3.12L45.47 3.12L45.47 3.12Q45.67 3.30 45.67 3.63ZM47.87 13.05L47.87 6.06L47.87 6.06Q48.27 5.95 48.96 5.81L48.96 5.81L48.96 5.81Q49.64 5.67 50.64 5.67L50.64 5.67L50.64 5.67Q51.46 5.67 52.02 5.91L52.02 5.91L52.02 5.91Q52.57 6.15 52.90 6.59L52.90 6.59L52.90 6.59Q53.23 7.03 53.37 7.64L53.37 7.64L53.37 7.64Q53.51 8.26 53.51 9.00L53.51 9.00L53.51 13.05L52.60 13.05L52.60 9.30L52.60 9.30Q52.60 8.53 52.49 7.99L52.49 7.99L52.49 7.99Q52.39 7.46 52.14 7.13L52.14 7.13L52.14 7.13Q51.90 6.79 51.50 6.64L51.50 6.64L51.50 6.64Q51.10 6.50 50.50 6.50L50.50 6.50L50.50 6.50Q49.85 6.50 49.38 6.57L49.38 6.57L49.38 6.57Q48.92 6.64 48.78 6.69L48.78 6.69L48.78 13.05L47.87 13.05ZM55.83 13.05L55.83 6.06L55.83 6.06Q56.24 5.95 56.92 5.81L56.92 5.81L56.92 5.81Q57.61 5.67 58.60 5.67L58.60 5.67L58.60 5.67Q59.43 5.67 59.98 5.91L59.98 5.91L59.98 5.91Q60.54 6.15 60.87 6.59L60.87 6.59L60.87 6.59Q61.19 7.03 61.33 7.64L61.33 7.64L61.33 7.64Q61.47 8.26 61.47 9.00L61.47 9.00L61.47 13.05L60.56 13.05L60.56 9.30L60.56 9.30Q60.56 8.53 60.46 7.99L60.46 7.99L60.46 7.99Q60.35 7.46 60.11 7.13L60.11 7.13L60.11 7.13Q59.86 6.79 59.47 6.64L59.47 6.64L59.47 6.64Q59.07 6.50 58.46 6.50L58.46 6.50L58.46 6.50Q57.82 6.50 57.35 6.57L57.35 6.57L57.35 6.57Q56.88 6.64 56.74 6.69L56.74 6.69L56.74 13.05L55.83 13.05ZM69.97 9.44L69.97 9.44L69.97 9.44Q69.97 10.29 69.73 10.99L69.73 10.99L69.73 10.99Q69.48 11.69 69.04 12.18L69.04 12.18L69.04 12.18Q68.60 12.67 68.00 12.94L68.00 12.94L68.00 12.94Q67.40 13.22 66.67 13.22L66.67 13.22L66.67 13.22Q65.94 13.22 65.34 12.94L65.34 12.94L65.34 12.94Q64.74 12.67 64.30 12.18L64.30 12.18L64.30 12.18Q63.85 11.69 63.61 10.99L63.61 10.99L63.61 10.99Q63.36 10.29 63.36 9.44L63.36 9.44L63.36 9.44Q63.36 8.58 63.61 7.88L63.61 7.88L63.61 7.88Q63.85 7.18 64.30 6.68L64.30 6.68L64.30 6.68Q64.74 6.19 65.34 5.92L65.34 5.92L65.34 5.92Q65.94 5.64 66.67 5.64L66.67 5.64L66.67 5.64Q67.40 5.64 68.00 5.92L68.00 5.92L68.00 5.92Q68.60 6.19 69.04 6.68L69.04 6.68L69.04 6.68Q69.48 7.18 69.73 7.88L69.73 7.88L69.73 7.88Q69.97 8.58 69.97 9.44ZM69.01 9.44L69.01 9.44L69.01 9.44Q69.01 8.08 68.38 7.27L68.38 7.27L68.38 7.27Q67.75 6.47 66.67 6.47L66.67 6.47L66.67 6.47Q65.59 6.47 64.96 7.27L64.96 7.27L64.96 7.27Q64.33 8.08 64.33 9.44L64.33 9.44L64.33 9.44Q64.33 10.79 64.96 11.59L64.96 11.59L64.96 11.59Q65.59 12.39 66.67 12.39L66.67 12.39L66.67 12.39Q67.75 12.39 68.38 11.59L68.38 11.59L68.38 11.59Q69.01 10.79 69.01 9.44Z"></path></g><!----><!----></svg>